<?xml version="1.0" ?><svg height="128" id="svg6449" version="1.1" viewBox="0 0 33.866666 33.866668" width="128" xmlns="http://www.w3.org/2000/svg" xmlns:cc="http://creativecommons.org/ns#" xmlns:dc="http://purl.org/dc/elements/1.1/" xmlns:inkscape="http://www.inkscape.org/namespaces/inkscape" xmlns:rdf="http://www.w3.org/1999/02/22-rdf-syntax-ns#" xmlns:sodipodi="http://sodipodi.sourceforge.net/DTD/sodipodi-0.dtd" xmlns:svg="http://www.w3.org/2000/svg"><defs id="defs6443"><clipPath clipPathUnits="userSpaceOnUse" id="clipPath5143"><ellipse cx="209.94763" cy="1573.1123" id="ellipse5145" rx="55.764446" ry="55.766594" style="display:inline;opacity:0.43500001;fill:#ffaaaa;fill-rule:evenodd;stroke:#333333;stroke-width:4.21448183;stroke-linecap:round;stroke-linejoin:round;stroke-miterlimit:4;stroke-dasharray:none;stroke-dashoffset:6.5999999;stroke-opacity:1"/></clipPath><clipPath clipPathUnits="userSpaceOnUse" id="clipPath11046"><ellipse cx="209.94763" cy="1380.6261" id="ellipse11048" rx="55.76445" ry="55.766594" style="display:inline;opacity:0.47600002;fill:#ffaaaa;fill-rule:evenodd;stroke:#333333;stroke-width:4.21448183;stroke-linecap:round;stroke-linejoin:round;stroke-miterlimit:4;stroke-dasharray:none;stroke-dashoffset:6.5999999;stroke-opacity:1"/></clipPath><clipPath clipPathUnits="userSpaceOnUse" id="clipPath8754"><ellipse cx="205.48343" cy="1298.3982" id="ellipse8756" rx="78.18396" ry="83.010139" style="display:inline;opacity:0.419;fill:#ffaaaa;fill-opacity:1;fill-rule:evenodd;stroke:#333333;stroke-width:4.21448183;stroke-linecap:round;stroke-linejoin:round;stroke-miterlimit:4;stroke-dasharray:none;stroke-dashoffset:6.5999999;stroke-opacity:1"/></clipPath><clipPath clipPathUnits="userSpaceOnUse" id="clipPath5060"><ellipse cx="68.499527" cy="1656.6876" id="ellipse5062" rx="71.409416" ry="71.223892" style="display:inline;opacity:0.45199998;fill:#ffe680;fill-rule:evenodd;stroke:#333333;stroke-width:4.21448183;stroke-linecap:round;stroke-linejoin:round;stroke-miterlimit:4;stroke-dasharray:none;stroke-dashoffset:6.5999999;stroke-opacity:1"/></clipPath><clipPath clipPathUnits="userSpaceOnUse" id="clipPath6174"><ellipse cx="128.2972" cy="1416.0679" id="ellipse6176" rx="55.76445" ry="55.766594" style="display:inline;opacity:0.572;fill:#ff9696;fill-opacity:1;fill-rule:evenodd;stroke:#333333;stroke-width:4.21448183;stroke-linecap:round;stroke-linejoin:round;stroke-miterlimit:4;stroke-dasharray:none;stroke-dashoffset:6.5999999;stroke-opacity:1"/></clipPath><clipPath clipPathUnits="userSpaceOnUse" id="clipPath5292"><ellipse cx="554.68481" cy="1234.8002" id="ellipse5294" rx="46.906162" ry="46.90797" style="display:inline;opacity:0.469;fill:#ffaaaa;fill-rule:evenodd;stroke:#333333;stroke-width:3.5625;stroke-linecap:round;stroke-linejoin:round;stroke-miterlimit:4;stroke-dasharray:none;stroke-dashoffset:6.5999999;stroke-opacity:1"/></clipPath><clipPath clipPathUnits="userSpaceOnUse" id="clipPath6537"><ellipse cx="2254.0229" cy="1364.222" id="ellipse6539" rx="114.45508" ry="114.4127" style="display:inline;fill:#d9ed88;fill-opacity:0.6;fill-rule:evenodd;stroke:#333333;stroke-width:9.00000095;stroke-linecap:round;stroke-linejoin:round;stroke-miterlimit:4;stroke-dasharray:none;stroke-dashoffset:6.5999999;stroke-opacity:1"/></clipPath></defs><g id="layer1" transform="translate(0,-263.13332)"><g id="g7016" transform="matrix(0.13356238,0,0,0.13356138,-152.09431,194.60605)"><ellipse cx="1267.7894" cy="749.28131" id="ellipse6994" rx="112.11687" ry="16.293594" style="opacity:0.694;fill:#808080;fill-rule:evenodd;stroke:none;stroke-width:1px;stroke-linecap:butt;stroke-linejoin:miter;stroke-opacity:1"/><ellipse cx="1265.5333" cy="636.43579" id="ellipse6996" rx="117.83234" ry="117.83775" style="display:inline;fill:#ffaaaa;fill-rule:evenodd;stroke:#333333;stroke-width:8.90538883;stroke-linecap:round;stroke-linejoin:round;stroke-miterlimit:4;stroke-dasharray:none;stroke-dashoffset:6.5999999;stroke-opacity:1"/><path d="m 1303.3448,641.32706 c -11.8248,0.18906 -20.6809,12.63251 -29.6598,13.13287 -13.607,0.75827 -28.1887,-15.28911 -42.2866,-11.47388 -39.9724,10.81751 -39.807,56.86626 -29.1737,87.52633 0.7896,2.2768 1.6811,4.54003 2.6504,6.78105 16.0466,9.69603 34.1411,15.40315 52.7692,16.69742 2.6204,0.18206 5.2515,0.2768 7.8888,0.28304 27.353,-0.0334 53.8423,-9.58232 74.9257,-27.00937 0.9362,-2.52443 1.5248,-4.34198 1.7363,-4.94672 12.9651,-37.07874 -0.4666,-79.02885 -37.6968,-80.97019 -0.3877,-0.0202 -0.7721,-0.0266 -1.1535,-0.0206 z" id="path6998" style="display:inline;fill:#ff5555;fill-opacity:1;fill-rule:evenodd;stroke:#333333;stroke-width:8.90538883;stroke-linecap:round;stroke-linejoin:round;stroke-miterlimit:4;stroke-dasharray:none;stroke-dashoffset:6.5999999;stroke-opacity:1"/><path d="m 1275.9794,652.32913 c -4.9394,-31.78699 -20.8616,-37.62798 -21.6348,-37.53476 l -4.4253,1.92592 c 12.9882,10.35895 19.9202,22.44577 18.8485,35.77274 z" id="path7000" style="fill:#aa4400;fill-rule:evenodd;stroke:#333333;stroke-width:8.90538883;stroke-linecap:round;stroke-linejoin:round;stroke-miterlimit:4;stroke-dasharray:none;stroke-dashoffset:0;stroke-opacity:1"/><path d="m 1277.6184,632.66027 c 0,0 4.5852,-2.75286 7.0476,-3.76987 7.0132,-2.89652 16.6781,-0.95665 21.7987,-6.55629 6.5873,-7.20349 5.9004,-28.68376 5.9004,-28.68376 0,0 -5.8152,5.6495 -9.3423,7.53973 -7.219,3.86874 -18.328,0.97463 -23.4377,7.37583 -5.027,6.29767 -6.5567,16.28144 -1.9667,24.09436 z" id="path7002" style="fill:#e5ff80;fill-rule:evenodd;stroke:#333333;stroke-width:8.90538883;stroke-linecap:round;stroke-linejoin:round;stroke-miterlimit:4;stroke-dasharray:none;stroke-dashoffset:0;stroke-opacity:1"/><path d="m 1322.6044,667.17309 c 12.3197,15.11198 9.6254,36.9911 7.2167,53.06634" id="path7004" style="opacity:1;fill:none;fill-opacity:1;fill-rule:evenodd;stroke:#ffffff;stroke-width:5.93692541;stroke-linecap:round;stroke-linejoin:round;stroke-miterlimit:4;stroke-dasharray:none;stroke-dashoffset:0;stroke-opacity:1"/><ellipse cx="1315.1952" cy="659.46332" id="ellipse7006" rx="3.1307704" ry="3.1309142" style="fill:#ffffff;fill-opacity:1;fill-rule:evenodd;stroke:none;stroke-width:1px;stroke-linecap:butt;stroke-linejoin:miter;stroke-opacity:1"/><path d="m 1236.5052,646.08029 c -1.2938,0.0373 -2.5836,0.21322 -3.8703,0.55745 -38.9154,10.41092 -36.3149,55.26096 -25.9628,84.76864 0.7687,2.19122 1.0374,1.66609 1.9811,3.82288 14.7133,8.73189 32.2713,13.1886 49.3568,14.77656 32.5002,-24.80401 50.0978,-57.36585 20.5294,-92.17549 -0.766,0.20295 -1.5309,0.33933 -2.2967,0.38151 -12.0053,0.66137 -27.2304,-12.49201 -39.7375,-12.13155 z" id="path7008" style="opacity:1;fill:#f13e3e;fill-opacity:1;fill-rule:evenodd;stroke:none;stroke-width:6;stroke-linecap:round;stroke-linejoin:round;stroke-miterlimit:4;stroke-dasharray:none;stroke-dashoffset:0;stroke-opacity:1"/><path d="m 1366.7138,625.65246 c 3.4914,12.7766 1.4504,23.34482 -1.2892,34.00924" id="path7010" style="opacity:1;fill:none;fill-opacity:0;fill-rule:evenodd;stroke:#ffffff;stroke-width:5.93692541;stroke-linecap:round;stroke-linejoin:round;stroke-miterlimit:4;stroke-dasharray:none;stroke-dashoffset:0;stroke-opacity:1"/><ellipse cx="1415.3495" cy="478.95535" id="ellipse7012" rx="3.5552814" ry="3.5554442" style="fill:#ffffff;fill-opacity:1;fill-rule:evenodd;stroke:#ffffff;stroke-width:0.98948759px;stroke-linecap:butt;stroke-linejoin:miter;stroke-opacity:1" transform="matrix(0.99544786,0.09530772,-0.0953063,0.99544799,0,0)"/><path d="m 1168.3702,594.04232 c -0.6652,-0.41806 1.3393,-6.20461 7.7004,-14.73613 6.258,-8.39312 17.1142,-19.67902 33.3982,-28.11284 15.3104,-7.89824 34.3503,-12.83439 55.4566,-12.27724 0.2604,0.007 0.5206,0.0146 0.7805,0.0231 21.5613,0.69494 40.7232,6.82415 55.9501,14.99928 15.6009,8.36637 26.3214,18.50379 32.8427,26.3605 6.5355,7.87374 8.8591,13.27714 8.2157,13.74332 -0.8415,0.6097 -4.5765,-3.73376 -11.8617,-10.23776 -7.3216,-6.53654 -18.1468,-15.06533 -33.1003,-22.14392 -14.591,-6.89847 -32.475,-12.10292 -52.3645,-12.72669 -0.2397,-0.007 -0.4796,-0.014 -0.7197,-0.02 -19.449,-0.48595 -36.9724,3.55587 -51.3623,10.14569 -15.2539,6.95127 -26.2738,16.55936 -33.3363,23.60971 -7.1624,7.15005 -10.6865,11.94675 -11.5994,11.37302 z" id="path7014" style="opacity:1;fill:#ffffff;fill-opacity:1;fill-rule:evenodd;stroke:none;stroke-width:20;stroke-linecap:round;stroke-linejoin:round;stroke-miterlimit:4;stroke-dasharray:none;stroke-dashoffset:0;stroke-opacity:1"/></g></g></svg>