<?xml version="1.0" ?><!DOCTYPE svg  PUBLIC '-//W3C//DTD SVG 1.1//EN'  'http://www.w3.org/Graphics/SVG/1.1/DTD/svg11.dtd'><svg enable-background="new 0 0 75 75" height="75px" id="Layer_1" version="1.1" viewBox="0 0 75 75" width="75px" xml:space="preserve" xmlns="http://www.w3.org/2000/svg" xmlns:xlink="http://www.w3.org/1999/xlink"><g><path d="M26.795,23.552h21.412l2.914-6.338c1.387-3.01,0.066-6.574-2.947-7.961   c-1.793-0.826-3.779-0.686-5.387,0.193C41.771,7.567,39.785,6.29,37.5,6.29s-4.27,1.277-5.287,3.156   c-1.605-0.879-3.594-1.02-5.387-0.193c-3.012,1.387-4.332,4.951-2.947,7.961L26.795,23.552z" fill="#EA7628"/><path d="M28.123,25.507h18.754l2.553-5.553c1.213-2.639,0.059-5.76-2.58-6.975c-1.57-0.721-3.311-0.6-4.721,0.17   c-0.889-1.645-2.627-2.762-4.629-2.762s-3.74,1.117-4.629,2.762c-1.408-0.77-3.148-0.891-4.719-0.17   c-2.641,1.215-3.795,4.336-2.582,6.975L28.123,25.507z" fill="#C6621E"/><path d="M49.867,29.362H25.133c-9.359,5.75-15.814,16.881-15.814,24.371c0,10.475,12.619,14.977,28.184,14.977   c15.562,0,28.18-4.502,28.18-14.977C65.682,46.243,59.227,35.112,49.867,29.362z" fill="#EA7628"/><path d="M47.24,29.362H27.762c-7.371,5.75-12.453,16.881-12.453,24.371c0,10.475,9.936,14.977,22.193,14.977   c12.254,0,22.191-4.502,22.191-14.977C59.693,46.243,54.611,35.112,47.24,29.362z" fill="#C6621E"/><g><path d="M50.004,28.284c0,0.609-0.494,1.104-1.104,1.104H25.832c-0.611,0-1.105-0.494-1.105-1.104v-3.627    c0-0.611,0.494-1.105,1.105-1.105H48.9c0.609,0,1.104,0.494,1.104,1.105V28.284z" fill="#E83862"/><path d="M46.424,28.284c0,0.609-0.35,1.104-0.781,1.104H29.357c-0.432,0-0.779-0.494-0.779-1.104v-3.627    c0-0.611,0.348-1.105,0.779-1.105h16.285c0.432,0,0.781,0.494,0.781,1.105V28.284z" fill="#BC2A54"/></g><g><g><polygon fill="#0CAFAF" points="50.797,62.589 44.154,53.239 48.561,53.239 41.912,43.886 44.994,43.886 37.5,33.347      30.014,43.886 33.092,43.886 26.447,53.239 30.854,53.239 24.205,62.589    "/><polygon fill="#0E7987" points="45.924,62.589 41.717,53.239 44.506,53.239 40.295,43.886 42.248,43.886 37.5,33.347      32.758,43.886 34.709,43.886 30.5,53.239 33.291,53.239 29.078,62.589    "/><line fill="#0CAFAF" x1="30.854" x2="43.363" y1="53.239" y2="45.925"/><line fill="#0CAFAF" x1="33.035" x2="40.891" y1="43.712" y2="39.116"/><line fill="#0CAFAF" x1="29.521" x2="44.402" y1="62.589" y2="53.888"/><path d="M43.363,58.921c0,0.049-0.043,0.096-0.1,0.096c-0.055,0-0.1-0.047-0.1-0.096c0-0.055,0.045-0.1,0.1-0.1     C43.32,58.821,43.363,58.866,43.363,58.921z" fill="#0CAFAF"/><path d="M37.057,44.722c0,0.055-0.041,0.1-0.096,0.1c-0.053,0-0.098-0.045-0.098-0.1     c0-0.051,0.045-0.094,0.098-0.094C37.016,44.628,37.057,44.671,37.057,44.722z" fill="#0CAFAF"/><path d="M40.99,51.802c0,0.051-0.045,0.094-0.1,0.094c-0.053,0-0.094-0.043-0.094-0.094     c0-0.057,0.041-0.102,0.094-0.102C40.945,51.7,40.99,51.745,40.99,51.802z" fill="#0CAFAF"/><path d="M35.674,53.888c0,0.055-0.045,0.102-0.094,0.102c-0.055,0-0.1-0.047-0.1-0.102     c0-0.049,0.045-0.094,0.1-0.094C35.629,53.794,35.674,53.839,35.674,53.888z" fill="#0CAFAF"/><path d="M30.953,58.243c0,0.051-0.043,0.092-0.1,0.092c-0.059,0-0.098-0.041-0.098-0.092     c0-0.059,0.039-0.098,0.098-0.098C30.91,58.146,30.953,58.185,30.953,58.243z" fill="#0CAFAF"/></g><g><g><path d="M30.854,53.989c-0.258,0-0.509-0.133-0.648-0.371c-0.209-0.359-0.089-0.818,0.269-1.027l12.51-7.314      c0.358-0.209,0.817-0.088,1.026,0.27s0.089,0.816-0.269,1.025l-12.51,7.314C31.113,53.956,30.982,53.989,30.854,53.989z" fill="#0CAFAF"/></g><g><path d="M33.036,44.462c-0.258,0-0.509-0.133-0.648-0.371c-0.209-0.357-0.089-0.818,0.269-1.027l7.855-4.596      c0.359-0.209,0.816-0.088,1.026,0.27c0.209,0.357,0.089,0.816-0.269,1.025l-7.855,4.596      C33.295,44.429,33.164,44.462,33.036,44.462z" fill="#0CAFAF"/></g><g><path d="M29.522,63.339c-0.258,0-0.509-0.133-0.648-0.371c-0.209-0.357-0.089-0.818,0.269-1.027l14.881-8.701      c0.358-0.211,0.817-0.088,1.026,0.27s0.089,0.816-0.269,1.025L29.9,63.235C29.781,63.306,29.65,63.339,29.522,63.339z" fill="#0CAFAF"/></g><g><path d="M43.264,59.767c-0.469,0-0.85-0.379-0.85-0.846c0-0.469,0.381-0.85,0.85-0.85s0.85,0.381,0.85,0.85      C44.113,59.388,43.732,59.767,43.264,59.767z" fill="#0CAFAF"/></g><g><path d="M36.961,45.571c-0.468,0-0.848-0.381-0.848-0.85c0-0.465,0.38-0.844,0.848-0.844      c0.467,0,0.846,0.379,0.846,0.844C37.807,45.19,37.428,45.571,36.961,45.571z" fill="#0CAFAF"/></g><g><path d="M40.891,52.646c-0.465,0-0.844-0.379-0.844-0.844c0-0.471,0.379-0.852,0.844-0.852      c0.469,0,0.85,0.381,0.85,0.852C41.74,52.267,41.359,52.646,40.891,52.646z" fill="#0CAFAF"/></g><g><path d="M35.58,54.739c-0.469,0-0.85-0.383-0.85-0.852c0-0.465,0.381-0.844,0.85-0.844      c0.465,0,0.844,0.379,0.844,0.844C36.424,54.356,36.045,54.739,35.58,54.739z" fill="#0CAFAF"/></g><g><path d="M30.854,59.085c-0.468,0-0.848-0.379-0.848-0.842c0-0.477,0.372-0.848,0.848-0.848      c0.469,0,0.85,0.379,0.85,0.848C31.703,58.706,31.322,59.085,30.854,59.085z" fill="#0CAFAF"/></g></g></g></g></svg>