<?xml version="1.0" ?><svg id="Layer_1" style="enable-background:new 0 0 24 24;" version="1.1" viewBox="0 0 24 24" xml:space="preserve" xmlns="http://www.w3.org/2000/svg" xmlns:xlink="http://www.w3.org/1999/xlink"><title/><g id="Santa_Bag_1"><g><g id="_Group_"><path d="M12,23.5     c3.19,0,8.5-0.42,8.5-2.5s-2-5-2-5c0-5.71-1.42-8.5-6.5-8.5S5.5,10.29,5.5,16c0,0-2,2.92-2,5S8.82,23.5,12,23.5z" id="_Path_" style="fill:none;stroke:#303C42;stroke-linecap:round;stroke-linejoin:round;"/><path d="M14.5,7.8     c0-1.19,2-4.52,2-5.8c0.057-0.771-0.521-1.443-1.292-1.5c-0.069-0.005-0.139-0.005-0.208,0c-1.33,0-0.77,1-1.5,1s-0.6-1-2-1     s-2,2-2,2s-2-0.15-2,1s2,3.13,2,4.3" id="_Path_2" style="fill:none;stroke:#303C42;stroke-linecap:round;stroke-linejoin:round;"/></g><g><line style="fill:none;stroke:#303C42;stroke-linecap:round;stroke-linejoin:round;" x1="11.89" x2="11.89" y1="18" y2="13"/><polyline points="10.89,18.5 11.89,18      12.89,18.5    " style="fill:none;stroke:#303C42;stroke-linecap:round;stroke-linejoin:round;"/><polyline points="12.89,12.5 11.89,13      10.89,12.5    " style="fill:none;stroke:#303C42;stroke-linecap:round;stroke-linejoin:round;"/><line style="fill:none;stroke:#303C42;stroke-linecap:round;stroke-linejoin:round;" x1="14.06" x2="9.72" y1="16.75" y2="14.25"/><polyline points="13.99,17.87 14.05,16.75      14.99,16.13    " style="fill:none;stroke:#303C42;stroke-linecap:round;stroke-linejoin:round;"/><polyline points="9.79,13.13 9.73,14.25      8.79,14.87    " style="fill:none;stroke:#303C42;stroke-linecap:round;stroke-linejoin:round;"/><line style="fill:none;stroke:#303C42;stroke-linecap:round;stroke-linejoin:round;" x1="14.06" x2="9.72" y1="14.25" y2="16.75"/><polyline points="14.99,14.87 14.05,14.25      13.99,13.13    " style="fill:none;stroke:#303C42;stroke-linecap:round;stroke-linejoin:round;"/><polyline points="8.79,16.13 9.73,16.75      9.79,17.87    " style="fill:none;stroke:#303C42;stroke-linecap:round;stroke-linejoin:round;"/></g></g></g></svg>