<?xml version="1.0" encoding="UTF-8" standalone="no"?>
<svg
   xmlns:dc="http://purl.org/dc/elements/1.1/"
   xmlns:cc="http://creativecommons.org/ns#"
   xmlns:rdf="http://www.w3.org/1999/02/22-rdf-syntax-ns#"
   xmlns:svg="http://www.w3.org/2000/svg"
   xmlns="http://www.w3.org/2000/svg"
   xmlns:sodipodi="http://sodipodi.sourceforge.net/DTD/sodipodi-0.dtd"
   xmlns:inkscape="http://www.inkscape.org/namespaces/inkscape"
   id="Layer_1"
   style="enable-background:new 0 0 24 24;"
   version="1.1"
   viewBox="0 0 24 24"
   xml:space="preserve"
   sodipodi:docname="bag2new.svg"
   inkscape:version="0.92.0 r15299"><metadata
     id="metadata172"><rdf:RDF><cc:Work
         rdf:about=""><dc:format>image/svg+xml</dc:format><dc:type
           rdf:resource="http://purl.org/dc/dcmitype/StillImage" /><dc:title></dc:title></cc:Work></rdf:RDF></metadata><defs
     id="defs170" /><sodipodi:namedview
     pagecolor="#ffffff"
     bordercolor="#666666"
     borderopacity="1"
     objecttolerance="10"
     gridtolerance="10"
     guidetolerance="10"
     inkscape:pageopacity="0"
     inkscape:pageshadow="2"
     inkscape:window-width="1920"
     inkscape:window-height="1018"
     id="namedview168"
     showgrid="false"
     inkscape:zoom="27.812867"
     inkscape:cx="23.111914"
     inkscape:cy="10.989113"
     inkscape:window-x="-8"
     inkscape:window-y="-8"
     inkscape:window-maximized="1"
     inkscape:current-layer="Layer_1" /><g
     id="Santa_Bag_1"><g
       id="g164"><g
         id="_Group_"><path
           d="M12,23.5     c3.19,0,8.5-0.42,8.5-2.5s-2-5-2-5c0-5.71-1.42-8.5-6.5-8.5S5.5,10.29,5.5,16c0,0-2,2.92-2,5S8.82,23.5,12,23.5z"
           id="_Path_"
           style="fill:none;stroke:#303C42;stroke-linecap:round;stroke-linejoin:round;" /><path
           d="M14.5,7.8     c0-1.19,2-4.52,2-5.8c0.057-0.771-0.521-1.443-1.292-1.5c-0.069-0.005-0.139-0.005-0.208,0c-1.33,0-0.77,1-1.5,1s-0.6-1-2-1     s-2,2-2,2s-2-0.15-2,1s2,3.13,2,4.3"
           id="_Path_2"
           style="fill:none;stroke:#303C42;stroke-linecap:round;stroke-linejoin:round;" /></g><g
         id="g162"><line
           style="fill:none;stroke:#303C42;stroke-linecap:round;stroke-linejoin:round;"
           x1="11.89"
           x2="11.89"
           y1="18"
           y2="13"
           id="line144" /><polyline
           points="10.89,18.5 11.89,18      12.89,18.5    "
           style="fill:none;stroke:#303C42;stroke-linecap:round;stroke-linejoin:round;"
           id="polyline146" /><polyline
           points="12.89,12.5 11.89,13      10.89,12.5    "
           style="fill:none;stroke:#303C42;stroke-linecap:round;stroke-linejoin:round;"
           id="polyline148" /><line
           style="fill:none;stroke:#303C42;stroke-linecap:round;stroke-linejoin:round;"
           x1="14.06"
           x2="9.72"
           y1="16.75"
           y2="14.25"
           id="line150" /><polyline
           points="13.99,17.87 14.05,16.75      14.99,16.13    "
           style="fill:none;stroke:#303C42;stroke-linecap:round;stroke-linejoin:round;"
           id="polyline152" /><polyline
           points="9.79,13.13 9.73,14.25      8.79,14.87    "
           style="fill:none;stroke:#303C42;stroke-linecap:round;stroke-linejoin:round;"
           id="polyline154" /><line
           style="fill:none;stroke:#303C42;stroke-linecap:round;stroke-linejoin:round;"
           x1="14.06"
           x2="9.72"
           y1="14.25"
           y2="16.75"
           id="line156" /><polyline
           points="14.99,14.87 14.05,14.25      13.99,13.13    "
           style="fill:none;stroke:#303C42;stroke-linecap:round;stroke-linejoin:round;"
           id="polyline158" /><polyline
           points="8.79,16.13 9.73,16.75      9.79,17.87    "
           style="fill:none;stroke:#303C42;stroke-linecap:round;stroke-linejoin:round;"
           id="polyline160" /></g></g></g><path
     style="fill:#d45500;fill-opacity:1;stroke-width:0.03595458"
     d="m 10.484665,23.955595 c -0.108763,-0.0071 -0.480893,-0.03008 -0.8269556,-0.05102 C 9.3116465,23.883641 8.7336694,23.83425 8.3733157,23.794821 5.4486654,23.474817 3.7222965,22.788626 3.2063342,21.741066 3.0234883,21.369834 2.9858213,21.113049 3.0399285,20.606637 3.1666439,19.420655 3.7423318,17.954346 4.707644,16.358872 l 0.3001651,-0.496115 0.024061,-0.774152 C 5.0994074,12.915562 5.3886469,11.407611 5.9730721,10.181642 6.5633236,8.9434512 7.4427065,8.0836855 8.616551,7.5971341 8.7936877,7.5237119 8.9386177,7.4480998 8.9386177,7.4291072 8.9386177,7.3369078 8.5394722,6.6176317 8.0809614,5.8835768 7.2449351,4.5451366 7.0330249,4.0668522 7.0330249,3.5183697 c 0,-0.4132746 0.093312,-0.6425603 0.3729223,-0.9163429 C 7.5271278,2.4833721 7.7185335,2.3416815 7.8312932,2.2871587 8.076105,2.1687848 8.531033,2.0569687 8.9026631,2.0238279 L 9.1723225,1.9997806 9.2784018,1.7659567 c 0.2638258,-0.581534 0.7680652,-1.18642567 1.2150852,-1.45763206 0.374645,-0.22729611 0.638706,-0.28864186 1.153201,-0.26790753 0.684289,0.02757716 1.028443,0.18624674 1.513435,0.6977592 0.137609,0.14513398 0.268097,0.26387999 0.289972,0.26387999 0.02188,0 0.0836,-0.0893526 0.137158,-0.1985613 0.188496,-0.38433496 0.493268,-0.63246254 0.898872,-0.73180839 0.288406,-0.07064021 0.905527,-0.05535575 1.178593,0.02919064 0.83723,0.25922232 1.391034,1.10403625 1.314813,2.00571795 -0.04788,0.5663799 -0.27389,1.2407175 -0.913196,2.7246241 -0.683267,1.5859479 -1.015438,2.4320686 -1.015438,2.5865701 0,0.025477 0.07685,0.074819 0.170784,0.1096482 0.329051,0.1220104 0.93567,0.4571747 1.237658,0.6838198 1.61806,1.2143739 2.409403,3.3662006 2.498927,6.7951086 l 0.02159,0.826955 0.260126,0.431455 c 1.060781,1.759456 1.660324,3.320344 1.731953,4.509075 0.03538,0.587157 -0.09861,0.981262 -0.475028,1.397219 -0.821633,0.907934 -2.666876,1.450932 -5.841511,1.718976 -0.62147,0.05247 -3.644749,0.09999 -4.170731,0.06555 z M 13.792486,22.9701 c 2.746474,-0.149136 4.655017,-0.539212 5.619965,-1.148632 0.263895,-0.166665 0.474611,-0.382011 0.54974,-0.561821 0.134714,-0.322417 -0.009,-1.158154 -0.366639,-2.132573 -0.190312,-0.518477 -0.827146,-1.785628 -1.201121,-2.389951 -0.181881,-0.29391 -0.34522,-0.585035 -0.362976,-0.646945 -0.01776,-0.06191 -0.03244,-0.379633 -0.03264,-0.706052 -6.37e-4,-1.061474 -0.0998,-2.113577 -0.288588,-3.06174 C 17.268262,10.102627 16.242559,8.8277102 14.475623,8.3018705 13.093136,7.8904426 11.008401,7.8800197 9.6037775,8.2775131 7.4019904,8.9005948 6.359432,10.570451 6.0609333,13.952054 c -0.022128,0.250679 -0.051108,0.849323 -0.0644,1.330319 l -0.024168,0.87454 -0.2731399,0.431455 c -0.9517618,1.503414 -1.5720396,3.000017 -1.6931084,4.085122 -0.038809,0.34784 -0.036649,0.397412 0.024284,0.557296 0.3072537,0.806214 2.1543844,1.40964 5.1059678,1.668032 1.1984542,0.104917 3.4124902,0.138812 4.6561182,0.07128 z M 11.320609,7.0392423 c 0.732857,-0.047501 1.735302,-0.00741 2.355035,0.094177 0.44392,0.07277 0.418773,0.080658 0.490645,-0.1539133 0.137813,-0.4497929 0.306125,-0.8730416 0.875748,-2.2022181 0.326274,-0.7613383 0.674959,-1.6269449 0.774856,-1.9235702 0.165711,-0.49205 0.181856,-0.5692556 0.184215,-0.8808872 0.0022,-0.285918 -0.01025,-0.365555 -0.07619,-0.4887911 -0.09261,-0.173074 -0.295295,-0.360238 -0.475901,-0.4394635 -0.174203,-0.0764169 -0.727697,-0.070423 -0.849211,0.0092 -0.04743,0.031076 -0.145607,0.1782645 -0.218175,0.3270849 -0.21753,0.44609 -0.48525,0.6113856 -0.946951,0.5846581 C 13.068488,1.9443204 12.877314,1.8369624 12.488785,1.4343306 12.133676,1.0663329 11.991381,1.000411 11.547148,0.9980917 11.320257,0.99690699 11.235066,1.0134813 11.081259,1.0887317 10.718024,1.2664463 10.321319,1.7596883 10.08942,2.3219339 9.8207023,2.9734475 9.8370238,2.9614492 9.1801077,2.9903804 8.5598484,3.0176971 8.2338579,3.1085308 8.0577678,3.3031083 c -0.205658,0.2272494 0.012765,0.7545524 0.886169,2.1393389 0.4345993,0.6890587 0.7149217,1.1917473 0.842852,1.511445 l 0.1012546,0.2530347 0.3792086,-0.061994 c 0.208565,-0.034097 0.682575,-0.081657 1.053357,-0.1056906 z"
     id="path174"
     inkscape:connector-curvature="0" /><path
     style="fill:#a05a2c;fill-opacity:1;stroke-width:0.03595458"
     d="M 9.7835504,23.90131 C 5.6952889,23.621383 3.5354362,22.834258 3.1143088,21.470806 2.8176519,20.510342 3.4275348,18.551141 4.6845365,16.426572 l 0.3297243,-0.557296 0.039678,-0.916842 C 5.1502595,12.726756 5.4216307,11.361569 6.0080682,10.152497 6.3025042,9.5454518 6.5976293,9.1265233 7.0483976,8.675755 7.5107225,8.2134301 7.9062995,7.9392135 8.5182907,7.6568144 8.7569705,7.5466776 8.9386177,7.4414896 8.9386177,7.4134123 8.9386177,7.3094406 8.6156018,6.7322567 7.9160705,5.5862655 7.2368895,4.4736128 7.0614128,4.0504533 7.0574355,3.5156821 7.0551632,3.2098679 7.0660031,3.148167 7.1534026,2.9695289 7.2766074,2.7177068 7.5870325,2.4277777 7.881087,2.2898896 8.0994615,2.1874894 8.5981893,2.0677787 8.9766969,2.0269078 L 9.1765716,2.0053255 9.295385,1.7643616 c 0.2069517,-0.4197157 0.4335878,-0.734501 0.771417,-1.07145581 0.258164,-0.25749611 0.388784,-0.35698781 0.613649,-0.46740956 0.279962,-0.1374769 0.294879,-0.14053373 0.746052,-0.15288099 0.810159,-0.02217164 1.10515,0.08724943 1.670269,0.61955366 0.180945,0.17043806 0.343753,0.3098874 0.361795,0.3098874 0.01804,0 0.08842,-0.0990671 0.156396,-0.22014901 0.15849,-0.28231361 0.44482,-0.54462297 0.697827,-0.63928479 0.255849,-0.09572528 0.680853,-0.12772469 1.055062,-0.07943773 0.425569,0.05491433 0.714184,0.20091783 1.032024,0.52207627 0.397929,0.40208419 0.555427,0.79095886 0.556187,1.37326226 7.09e-4,0.5441641 -0.183066,1.1545052 -0.762131,2.5311274 -0.96932,2.3043864 -1.143035,2.7429269 -1.143035,2.885567 0,0.071825 0.05435,0.1093246 0.368534,0.2542769 1.644779,0.7588348 2.602285,2.0041243 3.121103,4.0591664 0.227886,0.902657 0.337575,1.790364 0.395887,3.2039 l 0.03967,0.961612 0.304774,0.510916 c 0.641865,1.076009 1.217305,2.337137 1.449179,3.176004 0.227139,0.821737 0.281165,1.528081 0.149288,1.951805 -0.2338,0.7512 -1.078316,1.366237 -2.412748,1.757134 -1.166811,0.341795 -2.915458,0.59401 -4.548255,0.656013 -1.036144,0.03935 -3.532738,0.03649 -4.1347766,-0.0047 z m 4.8179136,-0.963955 c 2.238679,-0.202785 3.552617,-0.476494 4.498588,-0.93711 0.400104,-0.19482 0.727541,-0.462103 0.842747,-0.687926 0.148382,-0.290852 0.06121,-0.986904 -0.237165,-1.893625 -0.181339,-0.551071 -0.709715,-1.661732 -1.168325,-2.455852 -0.164625,-0.285061 -0.344769,-0.600635 -0.400321,-0.701276 L 18.035985,16.078582 17.999923,15.03911 C 17.950948,13.627421 17.846893,12.785085 17.601151,11.811005 17.142645,9.993562 16.147727,8.8362113 14.612623,8.3345626 13.149661,7.8564889 10.800543,7.8596597 9.3611189,8.3416506 8.672616,8.5721957 8.121452,8.9104902 7.6551984,9.3887139 7.0706528,9.9882666 6.684022,10.732804 6.4045671,11.79706 6.1560048,12.743668 6.0470959,13.620179 5.9901661,15.132207 l -0.038581,1.024706 -0.1122389,0.179773 c -0.5837309,0.934961 -0.9544394,1.620694 -1.2439753,2.301093 -0.3764552,0.884656 -0.567946,1.571226 -0.6081306,2.180388 -0.018028,0.273292 -0.010835,0.330714 0.059675,0.476368 0.1769941,0.365621 0.7748721,0.740524 1.6018587,1.004456 0.9981836,0.31857 2.6776527,0.580319 4.2965725,0.66963 0.7401405,0.04083 4.1099955,0.0182 4.6561175,-0.03127 z M 10.304892,7.1528038 c 0.890434,-0.1322741 2.423093,-0.1409388 3.281821,-0.018553 0.39898,0.056862 0.465611,0.058676 0.506724,0.01379 0.02604,-0.028425 0.108752,-0.2296573 0.183813,-0.4471826 C 14.35231,6.483333 14.651878,5.7390732 14.942952,5.0469475 15.842716,2.9074567 16.021869,2.3943638 16.02147,1.9580899 16.021182,1.6406715 15.964911,1.4825814 15.783008,1.2881123 15.551762,1.0408918 15.421299,0.98846673 15.031365,0.98607409 14.631307,0.98361947 14.569079,1.0181646 14.38697,1.343807 14.106892,1.8446322 13.922559,1.9568944 13.424817,1.9297751 13.244235,1.9199362 13.081755,1.8897054 13.011364,1.8528485 12.947585,1.8194537 12.73829,1.6444842 12.546266,1.4640274 12.112218,1.0561266 11.99262,0.99931721 11.566501,0.99863982 11.198494,0.99805484 11.011594,1.0705055 10.752177,1.3143088 10.466987,1.5823336 10.286952,1.863185 10.003631,2.4820283 9.9101274,2.6862613 9.8092522,2.8525792 9.7588557,2.8856003 9.7006708,2.9237247 9.5117891,2.9539096 9.1709149,2.9795586 8.6048823,3.0221495 8.3407221,3.0804213 8.1630601,3.2018841 7.7874027,3.4587108 7.8876948,3.7311237 9.0872263,5.7121065 9.3326979,6.1174944 9.6140605,6.6234337 9.7124765,6.836416 c 0.1666494,0.3606475 0.1851103,0.3859998 0.2688241,0.3691727 0.049437,-0.00994 0.1950534,-0.03369 0.3235914,-0.052785 z"
     id="path176"
     inkscape:connector-curvature="0" /><path
     style="fill:#a05a2c;fill-opacity:1;stroke-width:0.03595458"
     d="m 10.04079,23.916679 c -0.0035,-0.0035 -0.135661,-0.01423 -0.2936246,-0.02377 C 7.6003831,23.763234 5.6278223,23.371932 4.5654561,22.865 4.0958873,22.640934 3.8331503,22.459898 3.5535749,22.167773 3.0181958,21.608364 2.9210212,20.950216 3.2009261,19.779337 c 0.00827,-0.03461 0.087862,-0.281855 0.1768653,-0.549442 0.20035,-0.60235 0.4865188,-1.264332 0.8310515,-1.922436 0.1449375,-0.27685 0.3017007,-0.576172 0.3483625,-0.66516 0.046662,-0.08899 0.095121,-0.169885 0.107686,-0.179772 0.030034,-0.02363 0.2301722,-0.380469 0.2998134,-0.534552 0.033425,-0.07395 0.061769,-0.276857 0.072828,-0.521342 0.077015,-1.702622 0.2055808,-2.836812 0.4146378,-3.657889 0.038285,-0.150365 0.075528,-0.304071 0.082761,-0.341568 0.00723,-0.0375 0.02327,-0.09245 0.035636,-0.122109 0.012366,-0.02966 0.072652,-0.199548 0.1339679,-0.377523 C 5.8602083,10.455692 6.1707746,9.818054 6.4110969,9.4568719 6.6509999,9.0963201 7.2226824,8.4911688 7.5847256,8.2145347 7.7262281,8.1064138 8.0766066,7.8941196 8.3633444,7.7427703 8.6500822,7.5914205 8.8972013,7.4556805 8.9124978,7.4411253 8.9532498,7.402349 8.7031796,6.8927824 8.443343,6.48513 8.3803204,6.3862549 8.3284487,6.2851327 8.328073,6.2604139 8.327699,6.2356949 8.311518,6.2154709 8.29212,6.2154709 c -0.019398,0 -0.045421,-0.040449 -0.05783,-0.089887 -0.012408,-0.049437 -0.036985,-0.089886 -0.054617,-0.089886 -0.017631,0 -0.032057,-0.017835 -0.032057,-0.039634 0,-0.021798 -0.1278415,-0.2523573 -0.2840922,-0.5123528 C 7.2554795,4.471946 7.1068569,4.1097402 7.078954,3.5716437 7.0548709,3.1072072 7.1208436,2.935437 7.4416063,2.6274249 7.6756433,2.4026909 7.8714836,2.284876 8.1442908,2.2046988 8.329303,2.1503244 8.9671736,2.0089082 9.0044286,2.0140059 9.1311394,2.0313438 9.1848951,1.9963411 9.2471228,1.8559776 9.2843821,1.7719338 9.3313334,1.684061 9.3514587,1.6607049 9.3715839,1.6373487 9.4446785,1.5165664 9.513891,1.3922998 9.707523,1.0446466 10.316956,0.43148883 10.638278,0.26104112 10.781203,0.18522527 10.906232,0.12162576 10.91612,0.11970887 11.124451,0.0793196 11.686803,0.06805575 11.941988,0.09916084 c 0.428294,0.05220574 0.65759,0.16971608 1.131387,0.57981488 0.415375,0.35953118 0.379906,0.35267868 0.539338,0.1041989 0.12609,-0.19651365 0.455278,-0.50652943 0.62575,-0.58930371 0.311302,-0.15115627 0.922516,-0.18549004 1.350448,-0.0758589 0.333864,0.0855319 0.550183,0.21869936 0.824691,0.50768394 0.468905,0.49363555 0.622415,1.04912425 0.491973,1.78023895 -0.06433,0.3605842 -0.309958,1.0874001 -0.649853,1.9229599 -0.257255,0.6324052 -0.302163,0.7407759 -0.409297,0.9877112 -0.05301,0.1221913 -0.121362,0.2977676 -0.132966,0.3415685 -0.01698,0.064095 -0.201568,0.5022838 -0.227189,0.5393188 -0.01368,0.019775 -0.04661,0.1006728 -0.07317,0.1797729 -0.02656,0.0791 -0.08036,0.2166263 -0.119547,0.3056139 -0.141715,0.3217903 -0.164651,0.379921 -0.208184,0.527631 -0.02433,0.082559 -0.03577,0.1721836 -0.02541,0.199165 0.01035,0.026982 0.20266,0.1435922 0.427348,0.2591348 1.55749,0.8009163 2.38533,1.8192112 2.924178,3.5969201 0.315255,1.040056 0.472108,2.232676 0.541619,4.118158 0.01003,0.272074 0.03356,0.490687 0.05355,0.497446 0.01961,0.0066 0.02651,0.02686 0.01533,0.04494 -0.01118,0.01809 -0.0032,0.03288 0.01775,0.03288 0.02094,0 0.03808,0.02427 0.03808,0.05393 0,0.02966 0.01888,0.05393 0.04195,0.05393 0.02307,0 0.03292,0.009 0.02189,0.02006 -0.01103,0.01103 0.08524,0.20114 0.213931,0.422466 0.478782,0.823414 1.019909,1.979668 1.248416,2.667551 0.05255,0.1582 0.105035,0.311906 0.116629,0.341568 0.01159,0.02966 0.02484,0.0782 0.02944,0.107864 0.0046,0.02966 0.04291,0.218794 0.08513,0.420292 0.09891,0.471992 0.129374,0.938968 0.08047,1.233619 -0.10638,0.64098 -0.644527,1.209852 -1.532668,1.620174 -1.026546,0.474266 -2.803046,0.823148 -4.943329,0.970806 -0.465738,0.03213 -4.371838,0.07232 -4.398879,0.04526 z m 4.237083,-0.964716 c 0.262886,-0.01441 0.617867,-0.04317 0.86291,-0.06992 0.469356,-0.05123 0.686679,-0.08107 1.833684,-0.251845 0.05932,-0.0088 0.214685,-0.04034 0.345244,-0.07001 0.130559,-0.02968 0.276175,-0.06197 0.323591,-0.07175 0.172212,-0.03556 0.303117,-0.06975 0.391825,-0.102356 0.02966,-0.0109 0.231907,-0.07946 0.449432,-0.152343 0.76135,-0.255111 1.26785,-0.583944 1.439341,-0.93446 0.09342,-0.190953 0.09745,-0.219699 0.07412,-0.52881 -0.06153,-0.815035 -0.47102,-1.959023 -1.158018,-3.23512 -0.131351,-0.243985 -0.27315,-0.508281 -0.315108,-0.587326 -0.04196,-0.07905 -0.08514,-0.151853 -0.09596,-0.161796 -0.01082,-0.0099 -0.06371,-0.109303 -0.117532,-0.220801 -0.05382,-0.111497 -0.138003,-0.261877 -0.187067,-0.334176 -0.0746,-0.109923 -0.08921,-0.173968 -0.08921,-0.391023 0,-0.29335 -0.09714,-1.953445 -0.125587,-2.146194 -0.01021,-0.06921 -0.0276,-0.231008 -0.03863,-0.359546 -0.02342,-0.272841 -0.05115,-0.475517 -0.105751,-0.773024 -0.03056,-0.166488 -0.16144,-0.710342 -0.211587,-0.879206 -0.02981,-0.100381 -0.05396,-0.186318 -0.05366,-0.190971 2.88e-4,-0.0047 -0.0081,-0.03273 -0.01871,-0.06239 -0.01059,-0.02966 -0.062,-0.175279 -0.114251,-0.323591 -0.314897,-0.89384 -0.887386,-1.6840145 -1.574145,-2.172712 -0.305732,-0.2175587 -1.117418,-0.6130447 -1.226618,-0.5976572 -0.01045,0.00147 -0.07555,-0.020952 -0.144666,-0.049831 -0.06912,-0.028879 -0.12567,-0.046373 -0.12567,-0.038875 0,0.0075 -0.05258,-0.00235 -0.116852,-0.021897 -0.215903,-0.065648 -0.26826,-0.074555 -0.889876,-0.15139 -0.706695,-0.087351 -1.297345,-0.1053261 -1.941547,-0.059086 -0.70874,0.050873 -0.751106,0.055316 -1.01376,0.1063181 -0.11263,0.02187 -0.250157,0.04581 -0.305614,0.0532 -0.055458,0.00739 -0.1251016,0.022444 -0.1547641,0.033455 -0.029663,0.011011 -0.094381,0.027171 -0.1438184,0.035911 C 9.5333274,8.2774426 8.9739341,8.496936 8.6427345,8.6692087 8.0356968,8.9849583 7.5347189,9.4434044 7.1528349,10.032619 c -0.1448653,0.223516 -0.4099962,0.705467 -0.3978515,0.72321 0.00297,0.0043 -0.024898,0.0807 -0.061935,0.169692 -0.037037,0.08899 -0.070889,0.177975 -0.075228,0.19775 -0.00434,0.01977 -0.057828,0.19775 -0.1188667,0.395501 -0.099295,0.321694 -0.2384805,0.890451 -0.2771599,1.132569 -0.0079,0.04944 -0.023428,0.146515 -0.034511,0.215727 -0.06318,0.394545 -0.066564,0.428058 -0.1197909,1.186502 -0.022899,0.326287 -0.058484,0.827854 -0.079077,1.114592 -0.020594,0.286737 -0.033751,0.618418 -0.029239,0.737069 0.00715,0.187995 -0.00641,0.238837 -0.105473,0.3955 -0.062522,0.09887 -0.1139845,0.199997 -0.1143603,0.224716 -3.757e-4,0.02472 -0.014976,0.04494 -0.032444,0.04494 -0.017469,0 -0.040951,0.02831 -0.052183,0.06292 -0.011232,0.03461 -0.1594615,0.297524 -0.3293984,0.584262 -0.169937,0.286738 -0.3629715,0.634598 -0.4289655,0.773023 -0.1663848,0.348999 -0.2855047,0.607873 -0.289527,0.629206 -0.00186,0.0099 -0.069324,0.187862 -0.1499111,0.3955 -0.080587,0.207638 -0.1661609,0.442241 -0.1901647,0.521341 -0.024004,0.0791 -0.052948,0.168088 -0.06432,0.197751 -0.081556,0.212722 -0.1916205,0.828678 -0.1998926,1.118659 -0.010549,0.36978 0.017244,0.449469 0.2338491,0.670502 0.2269685,0.231607 0.5524557,0.432774 0.9652368,0.596562 0.1668333,0.0662 0.3356923,0.133297 0.3752424,0.149108 0.03955,0.01581 0.1042683,0.03459 0.1438183,0.04174 0.03955,0.0071 0.096178,0.02334 0.1258411,0.03598 0.029663,0.01264 0.073937,0.02717 0.098388,0.03228 0.024451,0.0051 0.2186054,0.05064 0.431455,0.101168 0.6086484,0.144493 1.8570933,0.345177 2.5083195,0.403204 0.4857504,0.04328 0.6170328,0.05234 1.0044014,0.06928 0.2360201,0.01032 0.4355201,0.02516 0.4433331,0.03297 0.01679,0.01679 3.579182,-0.01381 3.945453,-0.03389 z M 10.37098,7.1507874 c 0.789031,-0.113903 2.228109,-0.1228111 3.169824,-0.019621 0.06921,0.00758 0.219612,0.023288 0.334221,0.034898 l 0.208379,0.021109 0.0539,-0.1352943 c 0.02965,-0.074412 0.06903,-0.1676533 0.08752,-0.2072033 0.01849,-0.03955 0.09867,-0.2409047 0.178182,-0.4474552 0.185461,-0.4817705 0.750996,-1.8689465 0.797677,-1.9565872 0.01963,-0.036847 0.0419,-0.099285 0.0495,-0.1387505 0.0076,-0.039466 0.04511,-0.1387549 0.08336,-0.2206422 0.121995,-0.26121 0.498001,-1.2538167 0.580555,-1.5325891 0.05365,-0.1811771 0.08131,-0.3759114 0.08465,-0.595961 0.0046,-0.3047401 -0.0023,-0.338663 -0.102946,-0.5014806 -0.05934,-0.096047 -0.187379,-0.2317212 -0.284521,-0.3014987 -0.1663,-0.1194531 -0.196252,-0.1277266 -0.512479,-0.1415572 -0.392645,-0.017173 -0.528276,0.024438 -0.611907,0.187728 -0.03149,0.061483 -0.06713,0.1198778 -0.0792,0.1297653 -0.01207,0.00989 -0.08249,0.1079556 -0.156483,0.2179291 -0.179648,0.2670043 -0.354753,0.3640031 -0.668632,0.3703876 -0.461093,0.00938 -0.519828,-0.015008 -0.988795,-0.4105421 -0.234127,-0.1974672 -0.476821,-0.3859168 -0.539318,-0.4187769 -0.07013,-0.036872 -0.231354,-0.065672 -0.421126,-0.075225 -0.263779,-0.0132791 -0.335337,-0.00356 -0.503364,0.068394 -0.18535,0.079368 -0.371797,0.2177723 -0.498557,0.3700896 -0.03127,0.037578 -0.08517,0.098252 -0.11978,0.1348297 -0.03461,0.036578 -0.06292,0.076143 -0.06292,0.087921 0,0.011778 -0.03008,0.064362 -0.06684,0.1168524 -0.03676,0.05249 -0.167993,0.2895915 -0.291626,0.5268917 C 9.9666124,2.5516988 9.8302313,2.7825083 9.7871757,2.8273085 9.7196821,2.8975368 9.6297931,2.9188204 9.1349934,2.9817301 8.4607073,3.06746 8.2448381,3.1296666 8.0948198,3.2814746 7.9807283,3.3969268 7.9301302,3.6278622 8.0003797,3.7125079 c 0.018292,0.022041 0.036013,0.056253 0.03938,0.076029 0.014643,0.086002 0.2614703,0.581067 0.4462018,0.8949523 0.1105355,0.187816 0.2009738,0.3585625 0.2009738,0.379437 0,0.020874 0.014426,0.037953 0.032057,0.037953 0.017631,0 0.042209,0.040449 0.054617,0.089887 0.012408,0.049437 0.038432,0.089886 0.05783,0.089886 0.019398,0 0.03527,0.017893 0.03527,0.039763 0,0.021869 0.1035563,0.2119793 0.2301255,0.4224664 0.1265691,0.2104867 0.3541767,0.6170284 0.505795,0.9034254 0.151618,0.2863969 0.2946654,0.5324618 0.3178831,0.5468113 0.023218,0.014349 0.074707,0.019265 0.1144221,0.010923 0.03971,-0.00834 0.190935,-0.032305 0.336046,-0.053253 z"
     id="path178"
     inkscape:connector-curvature="0" /><rect
     style="fill:#ffffff;fill-opacity:1"
     id="rect180"
     width="6.7235069"
     height="8.5931454"
     x="9.0246"
     y="11.451851" /><rect
     style="fill:#ffffff;fill-opacity:1"
     id="rect182"
     width="3.020185"
     height="5.429142"
     x="8.0178719"
     y="13.465307" /><path
     style="fill:#ffffff;fill-opacity:1;stroke-width:0.03595458"
     d="M 10.358824,22.946437 C 8.0543087,22.806609 6.7307832,22.609385 5.5768643,22.233857 5.1089959,22.081596 4.5856478,21.809116 4.3534228,21.596875 4.0128072,21.285572 3.9638719,21.098389 4.0631773,20.486656 4.2259246,19.484113 4.7719606,18.174915 5.5780731,16.85448 6.064198,16.058194 6.0262154,16.17189 6.0268528,15.511117 6.0283702,13.937995 6.2319407,12.401599 6.5782755,11.349394 7.2268157,9.3790539 8.449013,8.400098 10.639449,8.0964741 c 0.543533,-0.075341 2.058355,-0.08507 2.595741,-0.016671 0.484006,0.061604 1.113758,0.2037506 1.489288,0.3361589 1.462331,0.5156034 2.390711,1.636772 2.847497,3.438816 0.234366,0.924585 0.341198,1.821795 0.392389,3.295406 l 0.03497,1.006729 0.16765,0.269659 c 0.931069,1.497593 1.541728,2.857755 1.736765,3.868418 0.106306,0.550864 0.09818,0.814397 -0.03212,1.041558 -0.474095,0.82655 -2.772475,1.434382 -6.039479,1.597208 -0.652828,0.03254 -3.00458,0.04112 -3.473334,0.01268 z"
     id="path184"
     inkscape:connector-curvature="0" /><path
     style="fill:#d45500;fill-opacity:1;stroke-width:0.03595458"
     d="m 10.518886,23.963366 c -0.0089,-0.0089 -0.202309,-0.02606 -0.429722,-0.03812 -0.5235933,-0.02777 -1.32061,-0.08939 -1.4381829,-0.11119 -0.049438,-0.0092 -0.3406697,-0.04848 -0.6471825,-0.08736 C 5.3237753,23.386713 3.7203564,22.715051 3.237393,21.730072 3.0321622,21.311514 2.9917048,20.875462 3.0986885,20.235105 c 0.067169,-0.402044 0.3649174,-1.318419 0.6234955,-1.918921 0.1787376,-0.415087 0.8647932,-1.779753 0.9499601,-1.889612 0.04977,-0.0642 0.1090978,-0.167025 0.2458594,-0.426118 0.083453,-0.158099 0.1015648,-0.237295 0.1015648,-0.444101 0,-0.286764 0.051541,-1.038539 0.1289126,-1.880307 C 5.2897578,12.139015 5.5103964,11.235921 5.9950682,10.210888 6.2769516,9.6147319 6.5417118,9.2271516 6.9764072,8.7743133 7.4357115,8.2958398 7.7464806,8.0656126 8.4070555,7.714447 8.9102905,7.4469241 8.9336855,7.429635 8.9027081,7.3481587 8.8378582,7.1775901 8.6700978,6.8696208 8.3444542,6.3233344 8.1617409,6.0168216 7.9803249,5.7094099 7.9413077,5.6401974 7.9022905,5.5709848 7.7614449,5.3244377 7.6283177,5.092315 7.2006153,4.3465666 7.0686889,3.9599531 7.0693307,3.4541868 7.0696184,3.239245 7.0886509,3.1365717 7.1544805,2.9952002 7.261989,2.7643215 7.5461377,2.4833895 7.8195436,2.3376656 8.0330911,2.223846 8.8337328,2.0087846 9.0439186,2.0087846 c 0.094913,0 0.1211209,-0.023495 0.2001311,-0.1794137 0.313698,-0.619053 1.0060413,-1.38385586 1.4571863,-1.60969152 0.207245,-0.1037435 0.279547,-0.11976756 0.629011,-0.13940535 0.783427,-0.04402391 1.134018,0.07370255 1.724042,0.57892434 0.19713,0.16879684 0.375105,0.30648613 0.395501,0.30597622 0.0204,-5.0983e-4 0.09067,-0.0799553 0.156175,-0.17654534 0.179487,-0.26467732 0.434664,-0.50403066 0.639646,-0.59998108 0.353551,-0.16549416 0.977606,-0.18887840927 1.414209,-0.0529924 0.3128,0.0973544 0.498882,0.21897878 0.759798,0.49660937 0.279988,0.29792503 0.415368,0.53935506 0.483965,0.86307376 0.158783,0.74933 -9.14e-4,1.3095369 -1.186685,4.1628357 -0.400077,0.9626959 -0.615554,1.5160527 -0.645908,1.6587237 l -0.02397,0.1126766 0.46036,0.2421617 c 0.654751,0.3444154 1.054432,0.6279989 1.46805,1.0416165 0.431969,0.4319695 0.742427,0.8773658 1.023597,1.4684969 0.590657,1.241795 0.86305,2.685553 0.957724,5.076198 0.02072,0.523087 0.02491,0.545811 0.139268,0.755046 0.762908,1.395807 1.054336,1.978237 1.313305,2.624685 0.131243,0.327611 0.320112,0.863738 0.341989,0.970774 0.0081,0.03955 0.04738,0.225615 0.08733,0.413477 0.0949,0.446298 0.128377,1.000782 0.07705,1.276388 -0.118298,0.635261 -0.62634,1.174763 -1.491907,1.584295 -0.828031,0.391771 -2.109471,0.693753 -3.719779,0.876596 -0.994156,0.112882 -1.592275,0.142262 -3.349705,0.164538 -0.899763,0.0114 -1.677162,0.02861 -1.727553,0.03823 -0.05039,0.0096 -0.09893,0.0102 -0.107864,0.0013 z m 2.734282,-0.992978 c 3.286355,-0.09449 5.675161,-0.614107 6.467977,-1.406923 0.238314,-0.238315 0.274006,-0.327975 0.270108,-0.678525 -0.01107,-0.99542 -0.558192,-2.361311 -1.830228,-4.569177 -0.11159,-0.193687 -0.116484,-0.219426 -0.14015,-0.737069 -0.07094,-1.55173 -0.115583,-2.076768 -0.241246,-2.837467 -0.449085,-2.718536 -1.633058,-4.1196786 -3.85765,-4.5652371 -0.655691,-0.1313266 -1.114834,-0.172399 -1.927222,-0.172399 -2.3993774,0 -3.8877763,0.6142934 -4.7967873,1.9797345 -0.3840521,0.5768916 -0.6171988,1.1495036 -0.8301285,2.0388106 -0.2266954,0.946799 -0.3113307,1.735676 -0.3988191,3.71735 -0.020434,0.462854 0.015888,0.374588 -0.5342692,1.298314 -0.7828447,1.314413 -1.3238405,2.703914 -1.4175103,3.640751 -0.042955,0.429618 -0.00374,0.590813 0.1984329,0.815679 0.4636943,0.515739 1.5532968,0.918903 3.1988983,1.183622 0.8381535,0.134829 1.4920224,0.20667 2.333022,0.256331 1.1811202,0.06974 2.0330892,0.07854 3.5055722,0.0362 z M 10.458897,7.1298579 c 0.40009,-0.079525 2.230445,-0.089156 2.974043,-0.01565 0.266963,0.02639 0.522865,0.049349 0.568671,0.05102 0.07653,0.00279 0.127912,-0.107826 0.633265,-1.3632356 0.302489,-0.7514508 0.671535,-1.665596 0.820102,-2.0314339 0.422308,-1.0399109 0.530738,-1.407287 0.530738,-1.7982192 0,-0.3766672 -0.04113,-0.4984776 -0.235033,-0.6961169 -0.199058,-0.2028909 -0.378002,-0.2724369 -0.70341,-0.2733771 -0.341695,-9.873e-4 -0.467099,0.041849 -0.5533,0.1889981 -0.157374,0.2686471 -0.389095,0.5522185 -0.511723,0.6262278 -0.168932,0.1019547 -0.435192,0.1338567 -0.724355,0.086789 -0.237967,-0.038734 -0.378,-0.1329244 -0.952631,-0.6407609 C 12.080091,1.0651004 11.825856,0.98717783 11.47627,1.010015 10.924004,1.0460926 10.587239,1.3633446 10.091658,2.3143985 9.9680042,2.5516988 9.8307951,2.7830093 9.7867493,2.8284219 9.7177244,2.8995884 9.6301189,2.9208145 9.1523371,2.9821342 8.4946304,3.0665461 8.352978,3.1004 8.1761019,3.2154481 8.078363,3.2790219 8.0321387,3.3417203 8.0028684,3.4504221 7.9668916,3.5840294 7.9738926,3.625839 8.07369,3.8733838 8.1346,4.0244678 8.2867353,4.3260574 8.4117688,4.5435826 8.5368022,4.7611078 8.8506624,5.307154 9.1092355,5.7570185 9.3678086,6.2068833 9.6495789,6.7138192 9.7353914,6.8835435 l 0.1560227,0.3085892 0.2438919,-0.023217 c 0.13414,-0.012769 0.279756,-0.030345 0.323591,-0.039058 z"
     id="path196"
     inkscape:connector-curvature="0" /></svg>