<?xml version="1.0" encoding="UTF-8" standalone="no"?>
<svg
   xmlns:dc="http://purl.org/dc/elements/1.1/"
   xmlns:cc="http://creativecommons.org/ns#"
   xmlns:rdf="http://www.w3.org/1999/02/22-rdf-syntax-ns#"
   xmlns:svg="http://www.w3.org/2000/svg"
   xmlns="http://www.w3.org/2000/svg"
   xmlns:sodipodi="http://sodipodi.sourceforge.net/DTD/sodipodi-0.dtd"
   xmlns:inkscape="http://www.inkscape.org/namespaces/inkscape"
   enable-background="new 0 0 75 75"
   height="75px"
   id="Layer_1"
   version="1.1"
   viewBox="0 0 75 75"
   width="75px"
   xml:space="preserve"
   sodipodi:docname="bagnew.svg"
   inkscape:version="0.92.0 r15299"><metadata
     id="metadata3759"><rdf:RDF><cc:Work
         rdf:about=""><dc:format>image/svg+xml</dc:format><dc:type
           rdf:resource="http://purl.org/dc/dcmitype/StillImage" /><dc:title></dc:title></cc:Work></rdf:RDF></metadata><defs
     id="defs3757" /><sodipodi:namedview
     pagecolor="#ffffff"
     bordercolor="#666666"
     borderopacity="1"
     objecttolerance="10"
     gridtolerance="10"
     guidetolerance="10"
     inkscape:pageopacity="0"
     inkscape:pageshadow="2"
     inkscape:window-width="924"
     inkscape:window-height="857"
     id="namedview3755"
     showgrid="false"
     inkscape:zoom="11.133333"
     inkscape:cx="37.5"
     inkscape:cy="37.5"
     inkscape:window-x="397"
     inkscape:window-y="47"
     inkscape:window-maximized="0"
     inkscape:current-layer="Layer_1" /><g
     id="g3752"><path
       d="M26.795,23.552h21.412l2.914-6.338c1.387-3.01,0.066-6.574-2.947-7.961   c-1.793-0.826-3.779-0.686-5.387,0.193C41.771,7.567,39.785,6.29,37.5,6.29s-4.27,1.277-5.287,3.156   c-1.605-0.879-3.594-1.02-5.387-0.193c-3.012,1.387-4.332,4.951-2.947,7.961L26.795,23.552z"
       fill="#EA7628"
       id="path3680" /><path
       d="M28.123,25.507h18.754l2.553-5.553c1.213-2.639,0.059-5.76-2.58-6.975c-1.57-0.721-3.311-0.6-4.721,0.17   c-0.889-1.645-2.627-2.762-4.629-2.762s-3.74,1.117-4.629,2.762c-1.408-0.77-3.148-0.891-4.719-0.17   c-2.641,1.215-3.795,4.336-2.582,6.975L28.123,25.507z"
       fill="#C6621E"
       id="path3682" /><path
       d="M49.867,29.362H25.133c-9.359,5.75-15.814,16.881-15.814,24.371c0,10.475,12.619,14.977,28.184,14.977   c15.562,0,28.18-4.502,28.18-14.977C65.682,46.243,59.227,35.112,49.867,29.362z"
       fill="#EA7628"
       id="path3684" /><path
       d="M47.24,29.362H27.762c-7.371,5.75-12.453,16.881-12.453,24.371c0,10.475,9.936,14.977,22.193,14.977   c12.254,0,22.191-4.502,22.191-14.977C59.693,46.243,54.611,35.112,47.24,29.362z"
       fill="#C6621E"
       id="path3686" /><g
       id="g3692"><path
         d="M50.004,28.284c0,0.609-0.494,1.104-1.104,1.104H25.832c-0.611,0-1.105-0.494-1.105-1.104v-3.627    c0-0.611,0.494-1.105,1.105-1.105H48.9c0.609,0,1.104,0.494,1.104,1.105V28.284z"
         fill="#E83862"
         id="path3688" /><path
         d="M46.424,28.284c0,0.609-0.35,1.104-0.781,1.104H29.357c-0.432,0-0.779-0.494-0.779-1.104v-3.627    c0-0.611,0.348-1.105,0.779-1.105h16.285c0.432,0,0.781,0.494,0.781,1.105V28.284z"
         fill="#BC2A54"
         id="path3690" /></g><g
       id="g3750"><g
         id="g3714"><polygon
           fill="#0CAFAF"
           points="50.797,62.589 44.154,53.239 48.561,53.239 41.912,43.886 44.994,43.886 37.5,33.347      30.014,43.886 33.092,43.886 26.447,53.239 30.854,53.239 24.205,62.589    "
           id="polygon3694" /><polygon
           fill="#0E7987"
           points="45.924,62.589 41.717,53.239 44.506,53.239 40.295,43.886 42.248,43.886 37.5,33.347      32.758,43.886 34.709,43.886 30.5,53.239 33.291,53.239 29.078,62.589    "
           id="polygon3696" /><line
           fill="#0CAFAF"
           x1="30.854"
           x2="43.363"
           y1="53.239"
           y2="45.925"
           id="line3698" /><line
           fill="#0CAFAF"
           x1="33.035"
           x2="40.891"
           y1="43.712"
           y2="39.116"
           id="line3700" /><line
           fill="#0CAFAF"
           x1="29.521"
           x2="44.402"
           y1="62.589"
           y2="53.888"
           id="line3702" /><path
           d="M43.363,58.921c0,0.049-0.043,0.096-0.1,0.096c-0.055,0-0.1-0.047-0.1-0.096c0-0.055,0.045-0.1,0.1-0.1     C43.32,58.821,43.363,58.866,43.363,58.921z"
           fill="#0CAFAF"
           id="path3704" /><path
           d="M37.057,44.722c0,0.055-0.041,0.1-0.096,0.1c-0.053,0-0.098-0.045-0.098-0.1     c0-0.051,0.045-0.094,0.098-0.094C37.016,44.628,37.057,44.671,37.057,44.722z"
           fill="#0CAFAF"
           id="path3706" /><path
           d="M40.99,51.802c0,0.051-0.045,0.094-0.1,0.094c-0.053,0-0.094-0.043-0.094-0.094     c0-0.057,0.041-0.102,0.094-0.102C40.945,51.7,40.99,51.745,40.99,51.802z"
           fill="#0CAFAF"
           id="path3708" /><path
           d="M35.674,53.888c0,0.055-0.045,0.102-0.094,0.102c-0.055,0-0.1-0.047-0.1-0.102     c0-0.049,0.045-0.094,0.1-0.094C35.629,53.794,35.674,53.839,35.674,53.888z"
           fill="#0CAFAF"
           id="path3710" /><path
           d="M30.953,58.243c0,0.051-0.043,0.092-0.1,0.092c-0.059,0-0.098-0.041-0.098-0.092     c0-0.059,0.039-0.098,0.098-0.098C30.91,58.146,30.953,58.185,30.953,58.243z"
           fill="#0CAFAF"
           id="path3712" /></g><g
         id="g3748"><g
           id="g3718"><path
             d="M30.854,53.989c-0.258,0-0.509-0.133-0.648-0.371c-0.209-0.359-0.089-0.818,0.269-1.027l12.51-7.314      c0.358-0.209,0.817-0.088,1.026,0.27s0.089,0.816-0.269,1.025l-12.51,7.314C31.113,53.956,30.982,53.989,30.854,53.989z"
             fill="#0CAFAF"
             id="path3716" /></g><g
           id="g3722"><path
             d="M33.036,44.462c-0.258,0-0.509-0.133-0.648-0.371c-0.209-0.357-0.089-0.818,0.269-1.027l7.855-4.596      c0.359-0.209,0.816-0.088,1.026,0.27c0.209,0.357,0.089,0.816-0.269,1.025l-7.855,4.596      C33.295,44.429,33.164,44.462,33.036,44.462z"
             fill="#0CAFAF"
             id="path3720" /></g><g
           id="g3726"><path
             d="M29.522,63.339c-0.258,0-0.509-0.133-0.648-0.371c-0.209-0.357-0.089-0.818,0.269-1.027l14.881-8.701      c0.358-0.211,0.817-0.088,1.026,0.27s0.089,0.816-0.269,1.025L29.9,63.235C29.781,63.306,29.65,63.339,29.522,63.339z"
             fill="#0CAFAF"
             id="path3724" /></g><g
           id="g3730"><path
             d="M43.264,59.767c-0.469,0-0.85-0.379-0.85-0.846c0-0.469,0.381-0.85,0.85-0.85s0.85,0.381,0.85,0.85      C44.113,59.388,43.732,59.767,43.264,59.767z"
             fill="#0CAFAF"
             id="path3728" /></g><g
           id="g3734"><path
             d="M36.961,45.571c-0.468,0-0.848-0.381-0.848-0.85c0-0.465,0.38-0.844,0.848-0.844      c0.467,0,0.846,0.379,0.846,0.844C37.807,45.19,37.428,45.571,36.961,45.571z"
             fill="#0CAFAF"
             id="path3732" /></g><g
           id="g3738"><path
             d="M40.891,52.646c-0.465,0-0.844-0.379-0.844-0.844c0-0.471,0.379-0.852,0.844-0.852      c0.469,0,0.85,0.381,0.85,0.852C41.74,52.267,41.359,52.646,40.891,52.646z"
             fill="#0CAFAF"
             id="path3736" /></g><g
           id="g3742"><path
             d="M35.58,54.739c-0.469,0-0.85-0.383-0.85-0.852c0-0.465,0.381-0.844,0.85-0.844      c0.465,0,0.844,0.379,0.844,0.844C36.424,54.356,36.045,54.739,35.58,54.739z"
             fill="#0CAFAF"
             id="path3740" /></g><g
           id="g3746"><path
             d="M30.854,59.085c-0.468,0-0.848-0.379-0.848-0.842c0-0.477,0.372-0.848,0.848-0.848      c0.469,0,0.85,0.379,0.85,0.848C31.703,58.706,31.322,59.085,30.854,59.085z"
             fill="#0CAFAF"
             id="path3744" /></g></g></g></g><path
     style="fill:#c6621e;fill-opacity:1;stroke-width:0.08982036"
     d="m 29.020958,63.080838 c -0.0988,-0.0988 -0.179641,-0.260479 -0.179641,-0.359281 0,-0.174851 -0.05988,-0.179641 -2.245509,-0.179641 -1.23503,0 -2.245509,-0.02111 -2.245509,-0.04691 0,-0.0258 1.367717,-1.968879 3.039371,-4.317951 l 3.039371,-4.27104 -0.174506,-0.352708 -0.174506,-0.352707 h -1.74211 c -0.958161,0 -1.742111,-0.02336 -1.742111,-0.05191 0,-0.02855 1.374252,-1.98573 3.053893,-4.349289 1.67964,-2.363559 3.052614,-4.330844 3.051053,-4.371744 -0.0016,-0.0409 -0.09958,-0.184248 -0.217818,-0.318551 -0.208578,-0.236916 -0.247028,-0.24494 -1.291199,-0.269461 l -1.076219,-0.02527 3.461413,-4.876038 c 1.903776,-2.681821 3.48045,-4.857 3.503719,-4.83373 0.02327,0.02327 -0.814669,1.947306 -1.862087,4.275637 -1.047418,2.32833 -1.890203,4.245203 -1.872857,4.259717 0.0761,0.06367 6.586223,-3.828637 6.56699,-3.926308 -0.01179,-0.05987 -0.486715,-1.135259 -1.055389,-2.389749 -0.568674,-1.25449 -1.033954,-2.319238 -1.033954,-2.366107 0,-0.04687 0.729207,0.938436 1.620459,2.189567 0.891254,1.25113 1.689532,2.312944 1.773952,2.359586 0.210085,0.116071 0.371755,0.337676 0.375188,0.514279 0.0023,0.1201 1.558599,2.384804 3.031443,4.41141 l 0.310067,0.426646 h -1.342295 -1.342293 l -0.817319,-1.818862 c -0.449525,-1.000374 -0.849678,-1.818862 -0.889228,-1.818862 -0.03955,0 -1.458512,0.808383 -3.15325,1.796407 -2.042277,1.190638 -3.018804,1.806086 -2.895888,1.825109 0.101998,0.01579 0.185452,0.03777 0.185452,0.04884 0,0.01108 -0.845324,1.897861 -1.878497,4.192855 -1.033173,2.294994 -1.865682,4.185641 -1.850019,4.201439 0.02987,0.03013 10.181146,-5.878959 10.321212,-6.008007 0.04651,-0.04285 -0.11979,-0.523603 -0.392397,-1.13437 -0.260214,-0.582999 -0.492853,-1.110523 -0.516976,-1.172274 -0.033,-0.08448 0.146007,-0.112276 0.723036,-0.112276 h 0.766897 l 0.50643,0.718628 c 0.50575,0.717661 0.506885,0.718556 0.844003,0.664648 0.275615,-0.04407 0.384372,-0.01372 0.59257,0.16536 0.297847,0.256198 0.343523,0.686557 0.101278,0.954235 -0.147421,0.162897 -0.05785,0.30453 2.185629,3.455966 1.286642,1.807359 2.339349,3.307791 2.339349,3.334294 0,0.0265 -0.829803,0.04819 -1.844007,0.04819 h -1.844006 l 0.193633,0.261903 c 0.179341,0.242571 0.20113,0.506189 0.07216,0.873038 -0.01972,0.0561 1.220709,1.874967 2.75652,4.041916 1.535809,2.166951 2.821915,3.991099 2.858011,4.053663 0.05241,0.09083 -0.415899,0.108932 -2.324265,0.08982 l -2.389895,-0.02393 -1.473149,-3.278443 c -0.810231,-1.803144 -1.508774,-3.336623 -1.552317,-3.407733 -0.06301,-0.102892 -1.288237,0.576961 -6.000957,3.329799 -3.256982,1.902499 -6.191078,3.60776 -6.520213,3.789469 -0.673641,0.371906 -1.067048,0.416403 -1.332711,0.15074 z m 6.877559,-5.064778 c 3.454618,-2.019909 6.293946,-3.683181 6.309617,-3.696159 0.01567,-0.01298 -0.07527,-0.228367 -0.202095,-0.478642 -0.126825,-0.250277 -0.23059,-0.47151 -0.23059,-0.491631 0,-0.02012 0.585117,-0.05419 1.30026,-0.0757 0.715144,-0.02152 1.3225,-0.06136 1.349682,-0.08854 0.0397,-0.0397 -2.322287,-5.42487 -2.430547,-5.54149 -0.03943,-0.04248 -0.03979,-0.04227 -5.249335,3.002789 l -4.446108,2.598822 0.467945,0.04491 0.467944,0.04491 -0.940891,2.080834 -0.940891,2.080835 0.188638,0.319717 c 0.326302,0.553041 -0.02071,1.222207 -0.633811,1.222207 -0.226507,0 -0.284523,0.08894 -0.805601,1.23503 -0.693602,1.525549 -0.680145,1.491528 -0.57332,1.449382 0.04839,-0.01909 2.914486,-1.687365 6.369103,-3.707274 z"
     id="path3761"
     inkscape:connector-curvature="0" /><path
     style="fill:#c6621e;fill-opacity:1;stroke-width:0.08982036"
     d="m 33.558907,42.206623 c 0.104094,-0.249134 1.983201,-4.45748 3.543669,-7.93621 0.182955,-0.407859 0.352588,-0.761505 0.376962,-0.785879 0.03656,-0.03656 1.559161,3.272358 2.219936,4.824363 l 0.179954,0.42267 -1.499594,0.921229 c -1.824203,1.120643 -4.793464,2.85918 -4.883214,2.85918 -0.03591,0 -0.0079,-0.137409 0.06229,-0.305353 z"
     id="path3763"
     inkscape:connector-curvature="0" /><path
     style="fill:#c6621e;fill-opacity:1;stroke-width:0.08982036"
     d="m 31.086826,52.081231 c 0,-0.05811 1.891952,-4.327753 3.045994,-6.874015 0.302109,-0.66657 0.530118,-1.261907 0.506685,-1.322971 -0.02343,-0.06106 0.127584,-0.227853 0.335592,-0.370643 0.305385,-0.209636 3.44646,-2.057769 5.151617,-3.031089 0.293878,-0.167747 0.392049,-0.18858 0.466412,-0.09898 0.0518,0.06242 0.433289,0.859894 0.847743,1.772164 l 0.753555,1.658672 -0.92805,0.02549 c -0.510428,0.01402 -0.928051,0.05661 -0.928051,0.09465 0,0.03804 0.201725,0.531804 0.448278,1.097261 0.246553,0.565456 0.448649,1.074486 0.449102,1.131177 8.98e-4,0.109863 -1.201827,0.833219 -6.540635,3.933805 -3.425915,1.989647 -3.608242,2.089924 -3.608242,1.984471 z m 6.403147,-6.696098 c 0.455539,-0.358327 0.386905,-1.131203 -0.123913,-1.395357 -0.389947,-0.201649 -0.693685,-0.161 -0.986742,0.132057 -0.744616,0.744616 0.283452,1.913978 1.110655,1.2633 z"
     id="path3765"
     inkscape:connector-curvature="0" /><path
     style="fill:#c6621e;fill-opacity:1;stroke-width:0.08982036"
     d="m 29.565839,61.584882 c 0.01618,-0.206149 1.048354,-2.313712 1.16359,-2.375907 0.07307,-0.03944 0.278818,-0.136196 0.457228,-0.215025 0.487428,-0.215368 0.6834,-0.794286 0.397038,-1.17289 -0.07253,-0.09589 -0.13316,-0.237773 -0.134731,-0.315285 -0.0016,-0.07751 0.382433,-0.986944 0.853343,-2.020958 0.47091,-1.034015 0.878854,-1.968462 0.906542,-2.07655 0.04504,-0.175834 0.01109,-0.199475 -0.322502,-0.224551 -0.359869,-0.02705 -0.210726,-0.122583 4.285625,-2.745093 2.562159,-1.494386 4.699523,-2.717066 4.749699,-2.717066 0.07923,0 1.15786,2.3465 2.136311,4.64743 0.376999,0.886556 0.469342,0.822057 -1.223503,0.854586 l -1.141569,0.02194 0.23446,0.517886 c 0.128955,0.284838 0.218259,0.533039 0.198456,0.551558 -0.06425,0.06008 -7.224562,4.246862 -12.184209,7.124354 -0.209955,0.121811 -0.379055,0.18732 -0.375778,0.145575 z m 6.50464,-6.999425 c 0.279879,-0.183384 0.439951,-0.653989 0.325152,-0.955933 -0.117189,-0.308232 -0.520776,-0.608566 -0.817787,-0.608566 -0.29701,0 -0.700597,0.300334 -0.817787,0.608566 -0.110439,0.290478 0.04512,0.780476 0.305725,0.963012 0.250876,0.175721 0.730871,0.172339 1.004697,-0.0071 z m 5.198277,-2.024166 c 0.306037,-0.13944 0.548966,-0.617162 0.471265,-0.926746 -0.16485,-0.656813 -0.874958,-0.884344 -1.394806,-0.44692 -0.73685,0.620019 0.04038,1.776061 0.923541,1.373666 z"
     id="path3767"
     inkscape:connector-curvature="0" /><path
     style="fill:#c6621e;fill-opacity:1;stroke-width:0.08982036"
     d="m 36.687754,45.478738 c -0.473879,-0.195995 -0.627674,-0.870055 -0.295007,-1.292972 0.255114,-0.324326 0.804249,-0.332265 1.120318,-0.0162 0.572089,0.572089 -0.08547,1.615164 -0.825311,1.309168 z"
     id="path3769"
     inkscape:connector-curvature="0" /><path
     style="fill:#c6621e;fill-opacity:1;stroke-width:0.08982036"
     d="m 40.402243,52.391121 c -0.484711,-0.381273 -0.367437,-1.047623 0.228473,-1.298184 0.771952,-0.324581 1.408498,0.622061 0.834651,1.241253 -0.272098,0.293597 -0.731009,0.318173 -1.063124,0.05693 z"
     id="path3771"
     inkscape:connector-curvature="0" /><path
     style="fill:#c6621e;fill-opacity:1;stroke-width:0.08982036"
     d="m 34.955621,54.401061 c -0.251042,-0.319149 -0.234533,-0.680089 0.04637,-1.01393 0.333157,-0.395934 0.822296,-0.391469 1.160611,0.0106 0.196419,0.23343 0.231921,0.346505 0.190357,0.606287 -0.06794,0.424614 -0.339643,0.633712 -0.823461,0.633712 -0.31188,0 -0.424137,-0.04629 -0.573882,-0.236664 z"
     id="path3773"
     inkscape:connector-curvature="0" /><path
     style="fill:#c6621e;fill-opacity:1;stroke-width:0.08982036"
     d="m 29.696919,61.363045 c 0.03655,-0.11734 0.280723,-0.641838 0.542594,-1.165552 0.383934,-0.767824 0.529013,-0.974111 0.749235,-1.06533 0.460763,-0.190854 0.726821,-0.523444 0.726821,-0.908572 0,-0.187952 -0.04042,-0.366712 -0.08982,-0.397244 -0.199375,-0.12322 -0.05206,-0.594318 0.763473,-2.441441 0.469311,-1.062962 0.853293,-1.984565 0.853293,-2.048007 0,-0.06344 -0.09094,-0.140936 -0.202096,-0.172211 -0.200558,-0.05643 -0.200728,-0.05793 -0.02246,-0.197266 0.259275,-0.202645 2.100877,-1.295779 5.389222,-3.198922 3.381781,-1.957219 3.45495,-1.996185 3.556936,-1.894198 0.188493,0.188492 2.236477,4.824805 2.236477,5.06303 0,0.204048 -0.347357,0.263267 -1.544227,0.263267 -1.093545,0 -1.072945,-0.01813 -0.734813,0.646737 0.06784,0.1334 0.123351,0.29671 0.123351,0.362911 0,0.0662 -0.333458,0.315943 -0.741018,0.554983 -0.40756,0.23904 -3.166167,1.849122 -6.130239,3.57796 -2.964072,1.728837 -5.423867,3.163559 -5.46621,3.18827 -0.04234,0.02471 -0.04708,-0.05108 -0.01052,-0.168415 z M 36.1597,54.525449 c 0.139244,-0.120987 0.253961,-0.336321 0.285836,-0.536539 0.04724,-0.296752 0.01755,-0.370139 -0.263512,-0.651197 -0.230478,-0.230478 -0.395042,-0.316755 -0.60418,-0.316755 -0.209137,0 -0.373701,0.08628 -0.60418,0.316755 -0.278714,0.278714 -0.310423,0.355769 -0.264036,0.641622 0.029,0.178677 0.142204,0.42012 0.251574,0.536539 0.271596,0.2891 0.871279,0.293892 1.198498,0.0096 z m 5.171622,-1.956255 c 0.220181,-0.117837 0.444127,-0.547994 0.444127,-0.85308 0,-0.356785 -0.448828,-0.761024 -0.844967,-0.761024 -0.482296,0 -0.900978,0.406417 -0.888063,0.862046 0.01758,0.620214 0.743653,1.043867 1.288903,0.752058 z"
     id="path3775"
     inkscape:connector-curvature="0" /><path
     style="fill:#c6621e;fill-opacity:1;stroke-width:0.08982036"
     d="M 33.197605,68.505585 C 23.323673,67.535043 17.056427,63.382852 15.652167,56.881338 14.99649,53.845653 15.346522,50.189572 16.688211,46.05988 c 1.521247,-4.68237 3.949914,-9.08981 7.028107,-12.754308 0.87669,-1.043673 2.568889,-2.741688 3.383436,-3.395065 l 0.638675,-0.512303 h 9.770487 9.770488 l 0.634068,0.516467 c 1.572684,1.280998 3.656427,3.594544 5.255386,5.83497 2.543623,3.564068 4.825757,8.519772 5.802685,12.600658 0.460063,1.921808 0.606912,3.021821 0.653497,4.89521 0.04995,2.008725 -0.09687,3.235588 -0.564222,4.714709 -1.912267,6.052136 -8.202882,9.782612 -17.869201,10.596838 -1.533925,0.129209 -6.479832,0.09736 -7.994012,-0.05147 z m -2.843936,-5.492112 0.598427,-0.336826 9.945662,-0.04491 9.945662,-0.04491 -2.742866,-3.862275 c -2.652217,-3.734629 -3.45396,-4.818759 -2.457713,-3.323353 0.453091,0.680108 3.977146,5.710627 4.640519,6.624251 l 0.309784,0.426647 h -2.33048 -2.33048 L 45.615683,61.755989 C 45.441606,61.37313 44.764759,59.877621 44.111577,58.432636 43.24965,56.525859 42.883199,55.80539 42.775286,55.80539 c -0.197095,0 -1.665141,0.827214 -7.736364,4.359286 -4.790049,2.786719 -5.100054,2.952651 -5.523952,2.956741 -0.422082,0.0041 -0.456832,-0.01323 -0.577587,-0.287584 l -0.128484,-0.291916 -1.308642,-4.49e-4 c -0.719752,-2.69e-4 -1.70186,-0.02651 -2.182462,-0.05833 l -0.873821,-0.05787 0.507471,-0.727597 c 0.279108,-0.400179 1.632922,-2.311635 3.008475,-4.247679 l 2.501005,-3.520082 -0.145903,-0.364649 -0.145905,-0.364649 -1.000726,-5.39e-4 c -0.550399,-2.69e-4 -1.332114,-0.02634 -1.737144,-0.05787 l -0.736417,-0.05733 0.282157,-0.413688 c 0.155187,-0.227543 1.378628,-1.969841 2.718757,-3.871787 1.340131,-1.901946 2.567608,-3.650852 2.727729,-3.886458 0.298602,-0.439373 0.31179,-0.661377 0.05209,-0.876908 -0.176452,-0.146443 -0.173468,0.03766 0.0035,0.214606 0.0741,0.0741 0.134731,0.159705 0.134731,0.190228 0,0.03052 -1.394461,2.017023 -3.098803,4.414444 -1.704341,2.397422 -3.098802,4.376084 -3.098802,4.397028 0,0.02094 0.818488,0.03939 1.818862,0.041 l 1.818863,0.0029 0.14069,0.301006 0.140691,0.301007 -3.087369,4.344272 -3.087369,4.344272 2.295481,0.02397 c 1.989161,0.02077 2.29548,0.04229 2.29548,0.161269 0,0.242271 0.419691,0.578233 0.722341,0.578233 0.158911,0 0.541895,-0.146618 0.879832,-0.336826 z m 5.571927,-4.97113 c 3.390324,-1.979242 6.202603,-3.63579 6.24951,-3.681217 0.05347,-0.05179 0.01006,-0.237429 -0.116385,-0.497691 -0.110918,-0.228303 -0.183201,-0.433566 -0.160628,-0.456139 0.02257,-0.02257 0.519557,-0.06056 1.104409,-0.08441 0.584852,-0.02385 1.153497,-0.06169 1.263656,-0.08409 l 0.200289,-0.04072 -0.184368,-0.470299 c -0.505144,-1.288558 -2.204201,-5.033682 -2.300384,-5.070591 -0.0605,-0.02322 -2.282885,1.224659 -4.938636,2.773053 -3.608507,2.103884 -4.77251,2.822374 -4.606508,2.843404 0.122172,0.01548 0.353494,0.06274 0.514048,0.105035 0.228349,0.06015 0.291916,0.04913 0.291916,-0.0506 0,-0.07012 -0.05824,-0.12749 -0.129429,-0.12749 -0.345012,0 -0.160196,-0.21185 0.589245,-0.675435 1.805317,-1.116723 8.056404,-4.713787 8.191764,-4.713787 0.139555,0 2.306504,4.810015 2.306504,5.119791 0,0.219457 -0.246989,0.266784 -1.3997,0.268205 -0.547531,7.18e-4 -1.019429,0.02515 -1.048664,0.05438 -0.02923,0.02923 0.02466,0.23468 0.11976,0.456547 0.0951,0.221868 0.172915,0.451229 0.172915,0.509693 0,0.129054 0.26269,-0.02909 -6.691617,4.028553 -3.112275,1.815926 -5.670935,3.265752 -5.685909,3.221833 -0.01497,-0.04392 0.214726,-0.562518 0.510447,-1.152444 0.443339,-0.884405 0.586326,-1.092744 0.814973,-1.187453 0.402556,-0.166744 0.722765,-0.586051 0.722765,-0.946445 0,-0.166198 -0.04042,-0.327159 -0.08982,-0.357691 -0.199338,-0.123197 -0.05365,-0.601464 0.719474,-2.361934 0.445112,-1.013556 0.795028,-1.857096 0.777591,-1.874533 -0.0467,-0.0467 -1.767025,3.791362 -1.76367,3.934751 0.0016,0.06714 0.0622,0.200535 0.13473,0.296429 0.302038,0.399329 0.02274,1.058827 -0.496736,1.172923 -0.339452,0.07456 -0.494328,0.301773 -1.064365,1.561516 -0.504287,1.114442 -0.534997,1.224991 -0.317057,1.14136 0.08011,-0.03074 2.919556,-1.675273 6.30988,-3.654516 z m 0.106325,-3.407281 c 0.207516,-0.111059 0.444127,-0.54272 0.444127,-0.810242 0,-0.305542 -0.556804,-0.803862 -0.898204,-0.803862 -0.3414,0 -0.898203,0.49832 -0.898203,0.803862 0,0.256178 0.230494,0.691462 0.426645,0.805709 0.204983,0.119392 0.70643,0.121848 0.925635,0.0045 z m 9.133498,-0.791379 c -0.02267,-0.131391 -0.07113,-0.308776 -0.107709,-0.39419 -0.06158,-0.143808 0.06754,-0.157099 1.745198,-0.179641 l 1.811698,-0.02434 -2.262519,-3.188623 c -1.244384,-1.753742 -2.304094,-3.229042 -2.354911,-3.278443 -0.261625,-0.254341 0.413774,0.748398 2.268712,3.368264 0.821968,1.160928 1.621109,2.296938 1.775868,2.524466 l 0.281378,0.413689 -0.736417,0.05733 c -0.40503,0.03153 -1.215991,0.05757 -1.802137,0.05787 l -1.06572,5.39e-4 0.145061,0.221391 c 0.07978,0.121765 0.14629,0.394594 0.147792,0.606287 0.0023,0.317164 0.01964,0.355808 0.09882,0.219597 0.05285,-0.09091 0.07755,-0.2728 0.05488,-0.404191 z m -3.834097,-1.274489 c 0.220181,-0.117837 0.444127,-0.547994 0.444127,-0.85308 0,-0.360863 -0.448678,-0.761024 -0.853293,-0.761024 -0.456357,0 -0.853294,0.396937 -0.853294,0.853293 0,0.62462 0.713501,1.054605 1.26246,0.760811 z M 32.996823,51.16826 c 2.490033,-1.437051 7.57984,-4.41346 7.997442,-4.676733 0.414191,-0.261122 0.456774,-0.06843 -0.535302,-2.422294 -0.0242,-0.05743 0.02969,-0.123475 0.119771,-0.146766 0.131352,-0.03396 0.123765,-0.04441 -0.03831,-0.05277 -0.111153,-0.0057 -0.202096,0.03164 -0.202096,0.08305 0,0.05141 0.181887,0.534797 0.404192,1.074192 0.222305,0.539396 0.403747,1.032887 0.403203,1.096647 -0.0012,0.141599 -0.356298,0.363322 -3.996017,2.495172 -4.330552,2.536483 -5.898792,3.428551 -5.945398,3.381945 -0.0232,-0.0232 0.733613,-1.785848 1.681805,-3.916997 0.948191,-2.13115 1.705308,-3.893495 1.682482,-3.91632 -0.02283,-0.02283 -0.225621,0.373436 -0.450658,0.880583 -0.225036,0.507146 -1.01223,2.276126 -1.74932,3.931066 -1.582431,3.55293 -1.504268,3.359013 -1.3264,3.290758 0.07538,-0.02893 0.954959,-0.524621 1.954611,-1.10154 z m 11.108242,-5.24311 c 0,-0.526494 -0.400339,-0.8583 -0.918331,-0.761125 -0.279972,0.05252 -0.311452,0.02812 -0.719273,-0.557543 l -0.426488,-0.61247 1.484005,-0.02463 c 0.816202,-0.01355 1.484004,-0.04874 1.484004,-0.07822 0,-0.07374 -3.04183,-4.355523 -3.213129,-4.522906 -0.180717,-0.176585 1.434089,2.201361 2.331652,3.433566 0.38601,0.529928 0.701836,0.985753 0.701836,1.012946 0,0.02719 -0.574447,0.03822 -1.276548,0.02452 l -1.276549,-0.02492 -0.425404,-0.943114 c -0.600525,-1.331348 -1.263306,-2.69461 -1.310046,-2.69461 -0.112534,0 -5.797686,3.351109 -6.026572,3.552357 -0.01688,0.01484 0.01221,0.100749 0.06463,0.190906 0.08943,0.153783 0.09549,0.154088 0.09805,0.0049 0.0034,-0.198422 0.567759,-0.564161 3.493163,-2.263822 1.899574,-1.103653 2.297197,-1.303236 2.39432,-1.201805 0.06406,0.0669 0.440918,0.828966 0.837474,1.693487 l 0.721009,1.571856 -0.555449,0.05186 c -0.495324,0.04625 -0.511698,0.05356 -0.151258,0.06754 0.380435,0.01476 0.422668,0.04304 0.718563,0.481151 0.600843,0.889638 0.695366,0.971304 1.124219,0.971304 0.314004,0 0.425844,0.04596 0.575848,0.236665 0.197033,0.250485 0.246553,0.613613 0.09634,0.706449 -0.0494,0.03053 -0.08982,0.121481 -0.08982,0.20211 0,0.122978 0.02125,0.118507 0.131875,-0.02776 0.07253,-0.09589 0.131873,-0.31582 0.131873,-0.488724 z m -6.514247,-0.635635 c 0.325347,-0.386651 0.314116,-0.82355 -0.03002,-1.167681 -0.19438,-0.194382 -0.347765,-0.262553 -0.590741,-0.262553 -0.242976,0 -0.396361,0.06817 -0.590741,0.262553 -0.344133,0.344131 -0.355364,0.78103 -0.03002,1.167681 0.193615,0.230098 0.297515,0.276353 0.620759,0.276353 0.323244,0 0.427143,-0.04626 0.620758,-0.276353 z m -5.740519,-1.434366 c -0.247006,-0.03847 -0.720309,-0.07349 -1.051787,-0.07782 l -0.602685,-0.0079 1.867168,-2.627245 c 3.691539,-5.194271 4.626754,-6.477163 4.656572,-6.387705 0.01666,0.04999 -0.739627,1.823033 -1.680645,3.9401 -0.941017,2.117067 -1.699696,3.882948 -1.685951,3.924181 0.03453,0.103604 4.070663,-2.243501 6.10617,-3.550883 l 0.513034,-0.329515 -0.164582,-0.381174 c -0.09052,-0.209644 -0.515573,-1.163782 -0.94456,-2.120305 -0.428987,-0.956523 -0.764548,-1.754562 -0.74569,-1.773419 0.01886,-0.01886 0.650442,0.813678 1.403521,1.850079 0.753079,1.036401 1.416867,1.91324 1.475084,1.948531 0.05822,0.03529 0.0021,-0.07526 -0.124759,-0.245676 -0.126834,-0.170414 -0.926117,-1.290008 -1.776185,-2.487987 -0.850069,-1.197979 -1.574889,-2.175681 -1.610711,-2.172671 -0.06718,0.0056 -7.403156,10.331957 -7.459,10.499489 -0.0208,0.0624 0.354965,0.08982 1.121414,0.08184 0.906603,-0.0094 1.056815,-0.02694 0.703592,-0.08195 z m 9.783759,-4.975456 c -0.05912,-0.235557 -0.444574,-0.572171 -0.542757,-0.473988 -0.02739,0.02739 0.03769,0.09663 0.144631,0.153857 0.106938,0.05723 0.23633,0.224246 0.28754,0.371144 0.112657,0.323169 0.19497,0.285199 0.110586,-0.05101 z"
     id="path3777"
     inkscape:connector-curvature="0" /><path
     style="fill:#c6621e;fill-opacity:1;stroke-width:0.08982036"
     d="M 33.556886,68.556283 C 28.644599,68.127062 24.169734,66.756631 21.252374,64.788017 17.638935,62.349693 15.755515,59.233252 15.362321,55.041916 14.876758,49.865965 17.442744,42.086742 21.64332,36 c 1.506993,-2.183671 3.838878,-4.795965 5.441522,-6.095864 l 0.623763,-0.505932 h 9.804147 9.804146 l 0.709815,0.59648 c 5.636712,4.736717 10.510677,13.720014 11.484393,21.167102 0.199188,1.523417 0.182682,3.830205 -0.03654,5.106235 -0.957273,5.572064 -5.280514,9.537965 -12.354808,11.333616 -3.160624,0.802253 -4.671908,0.969606 -9.071856,1.004574 -1.976048,0.0157 -3.997006,-0.0068 -4.491018,-0.04993 z m -3.128599,-5.599142 0.554036,-0.325404 h 9.89719 c 8.833094,0 9.891539,-0.01473 9.844624,-0.136988 -0.06801,-0.177243 -4.879437,-6.960868 -5.063097,-7.138462 -0.07663,-0.0741 0.04222,0.127994 0.264123,0.449102 0.633254,0.916369 4.489241,6.409155 4.588295,6.535947 0.07135,0.09134 -0.375274,0.10906 -2.263373,0.08982 l -2.352271,-0.02397 -1.237608,-2.739521 c -1.441394,-3.190616 -1.773228,-3.862276 -1.908158,-3.862276 -0.147827,0 -2.00436,1.05081 -7.668216,4.340261 -4.83915,2.810479 -5.144375,2.973634 -5.568862,2.976775 -0.419661,0.0031 -0.457934,-0.01568 -0.583832,-0.286649 l -0.134731,-0.289972 -1.571856,-0.0131 c -0.864521,-0.0072 -1.846562,-0.03839 -2.182314,-0.06931 l -0.610457,-0.05621 0.259195,-0.359282 c 0.142556,-0.197605 1.496756,-2.104405 3.009333,-4.237335 l 2.750138,-3.878053 -0.153366,-0.365045 -0.153367,-0.365045 -1.212575,-0.01066 c -0.666916,-0.0059 -1.44687,-0.03659 -1.73323,-0.06828 l -0.520654,-0.05762 0.258965,-0.359281 c 0.734497,-1.019019 5.401653,-7.672578 5.544416,-7.904192 0.459762,-0.745901 -0.29396,0.286292 -3.049849,4.176647 l -3.022323,4.266467 1.822715,0.02685 1.822714,0.02685 0.142903,0.304035 0.142903,0.304036 -3.08574,4.339775 -3.085739,4.339775 2.291639,0.02397 c 1.987229,0.02079 2.291639,0.04224 2.291639,0.161474 0,0.07563 0.111153,0.240562 0.247006,0.366524 0.323366,0.29982 0.689148,0.253347 1.429784,-0.181655 z M 31.83313,60.41866 c 4.888825,-2.840962 10.260485,-5.98763 10.332479,-6.052669 0.04168,-0.03766 -0.0093,-0.260892 -0.113365,-0.49608 -0.104034,-0.235186 -0.173215,-0.443551 -0.153735,-0.463031 0.01948,-0.01948 0.584579,-0.06587 1.255773,-0.103079 0.671196,-0.03721 1.240432,-0.08774 1.264971,-0.112276 0.06085,-0.06085 -2.08952,-5.021087 -2.368229,-5.462758 -0.09029,-0.143077 -0.867896,0.284085 -6.248629,3.432546 -2.988043,1.748412 -3.57179,2.129106 -3.26472,2.129106 0.0789,0 0.279877,0.02354 0.446606,0.05232 l 0.303144,0.05232 -0.212229,-0.172623 -0.21223,-0.172624 0.796062,-0.49906 c 1.903875,-1.193562 8.079183,-4.73937 8.253993,-4.73937 0.133323,0 2.287578,4.815092 2.287578,5.113091 0,0.227526 -0.236449,0.273474 -1.414671,0.274905 -1.12315,0.0014 -1.124916,0.0026 -0.875748,0.598912 0.0741,0.177351 0.13473,0.368338 0.13473,0.424416 0,0.128579 0.150842,0.03745 -6.107784,3.689822 -6.554287,3.824908 -6.287425,3.674005 -6.287425,3.555381 0,-0.05455 0.23241,-0.566785 0.516467,-1.138311 0.383502,-0.771611 0.582208,-1.073222 0.77182,-1.171528 0.313545,-0.162559 0.264199,-0.248377 -0.0698,-0.12139 -0.194842,0.07408 -0.347683,0.312604 -0.764203,1.192632 -0.54555,1.152641 -0.6834,1.504226 -0.589781,1.504226 0.03094,0 1.074454,-0.591693 2.318927,-1.314873 z m -0.150072,-2.225045 c -0.02683,-0.152596 -0.07499,-0.405357 -0.107026,-0.561691 -0.0472,-0.230358 0.06248,-0.561178 0.578546,-1.745036 0.350232,-0.803436 0.62346,-1.474119 0.607172,-1.490407 -0.01629,-0.01629 -0.343339,0.672002 -0.726777,1.529534 -0.691105,1.545601 -0.695912,1.561569 -0.553194,1.837556 0.194196,0.375534 0.181128,0.661101 -0.04445,0.971322 l -0.18842,0.259119 0.241468,-0.261475 c 0.189313,-0.205001 0.23093,-0.321401 0.192681,-0.538922 z m 4.478156,-3.645327 c 0.0739,-0.06133 0.180821,-0.266565 0.237598,-0.456069 0.127122,-0.424297 -0.03636,-0.730379 -0.510993,-0.956716 -0.28773,-0.137208 -0.33222,-0.137208 -0.619949,0 -0.170486,0.0813 -0.378431,0.252294 -0.4621,0.379988 -0.129187,0.197165 -0.136225,0.285242 -0.04668,0.584132 0.141884,0.473565 0.403524,0.650793 0.886065,0.600199 0.209928,-0.02201 0.442153,-0.0902 0.516054,-0.151534 z m -3.104705,-0.763857 c 0,-0.0494 -0.05776,0.01123 -0.128365,0.134731 -0.0706,0.123503 -0.128365,0.26497 -0.128365,0.314371 0,0.0494 0.05776,-0.01123 0.128365,-0.134731 0.0706,-0.123503 0.128365,-0.26497 0.128365,-0.314371 z m 12.107695,0.01445 c -0.02326,-0.106751 -0.07171,-0.263977 -0.107647,-0.349391 -0.06049,-0.143756 0.06899,-0.157107 1.742091,-0.179641 l 1.807436,-0.02434 -2.165673,-3.053892 c -1.19112,-1.679641 -2.22916,-3.114521 -2.306755,-3.188623 -0.171079,-0.163376 0.52248,0.84819 2.617301,3.817365 l 1.584257,2.245509 -0.517906,0.05762 c -0.284849,0.03169 -1.098528,0.062 -1.808177,0.06737 l -1.290271,0.0097 0.145061,0.221391 c 0.07978,0.121765 0.14629,0.374385 0.147792,0.561377 0.0023,0.28506 0.01825,0.3133 0.09876,0.174799 0.05282,-0.09085 0.07699,-0.25253 0.05373,-0.359282 z m -3.891321,-1.239473 c 0.209279,-0.09535 0.502566,-0.557266 0.502566,-0.791518 0,-0.236011 -0.279048,-0.615339 -0.528753,-0.718771 -0.973505,-0.403239 -1.672585,0.971293 -0.748929,1.472543 0.298991,0.162256 0.482258,0.171181 0.775116,0.03775 z m -8.708845,-1.152452 c 1.594203,-0.914399 6.82794,-3.966348 8.043746,-4.69055 0.547313,-0.32601 0.669458,-0.43887 0.651281,-0.601775 -0.01231,-0.110281 -0.205565,-0.629366 -0.429466,-1.153524 -0.312331,-0.731176 -0.380301,-0.970013 -0.291998,-1.026045 0.08447,-0.0536 0.07327,-0.0734 -0.04209,-0.07441 -0.221715,-0.0019 -0.206074,0.07062 0.247006,1.145812 0.222305,0.527549 0.404192,1.024936 0.404192,1.105307 0,0.09507 -0.714009,0.570704 -2.043414,1.361216 -4.26209,2.534393 -7.838293,4.588416 -7.893188,4.53352 -0.04303,-0.04303 0.622591,-1.592122 2.190285,-5.097402 0.542305,-1.212563 1.012206,-2.30388 1.044224,-2.42515 0.08262,-0.312911 -0.174183,0.241803 -1.873054,4.04598 -1.628558,3.646729 -1.682358,3.772455 -1.614297,3.772455 0.0251,0 0.748146,-0.402946 1.606775,-0.895436 z m 11.54674,-5.435784 c 0,-0.548898 -0.533354,-0.958398 -1.003061,-0.770131 -0.181381,0.0727 -0.159131,0.08474 0.165704,0.08967 0.294474,0.0045 0.415277,0.05662 0.561377,0.242358 0.197033,0.250486 0.246553,0.613613 0.09634,0.70645 -0.0494,0.03053 -0.08982,0.09849 -0.08982,0.151029 0,0.06023 0.04977,0.05421 0.134731,-0.0163 0.0741,-0.0615 0.13473,-0.242883 0.134729,-0.403076 z m -6.549977,-0.667859 c 0.27911,-0.279109 0.334338,-0.596913 0.162219,-0.933472 -0.286774,-0.56076 -0.915,-0.676712 -1.343701,-0.24801 -0.362365,0.362363 -0.362365,0.819119 0,1.181482 0.19438,0.194381 0.347765,0.262552 0.590741,0.262552 0.242976,0 0.396361,-0.06817 0.590741,-0.262552 z m 5.234019,-0.209005 c -0.03799,-0.06175 -0.224701,-0.33458 -0.414912,-0.606287 l -0.345837,-0.494012 1.487455,-0.02463 c 0.818101,-0.01355 1.487456,-0.04561 1.487456,-0.07125 0,-0.05822 -2.858122,-4.092528 -2.986488,-4.215503 -0.21479,-0.205769 0.420566,0.736016 1.926581,2.855758 0.484146,0.681446 0.880266,1.257419 0.880266,1.27994 0,0.02252 -0.575973,0.04026 -1.27994,0.03941 l -1.27994,-0.0015 -0.218544,-0.514934 c -0.120199,-0.283236 -0.499334,-1.109278 -0.842523,-1.83567 l -0.62398,-1.320715 -0.370051,0.18821 c -0.460906,0.234419 -3.504556,1.998623 -4.591609,2.661453 -0.98977,0.603512 -1.124467,0.715724 -1.060192,0.883221 0.03875,0.10099 0.07378,0.0849 0.151128,-0.06943 0.110297,-0.220085 0.709089,-0.597413 3.725108,-2.347373 1.684761,-0.977536 2.026759,-1.145209 2.126405,-1.042523 0.06531,0.0673 0.4449,0.8297 0.843536,1.694221 l 0.724791,1.571856 -0.426047,0.05326 c -0.296969,0.03712 -0.344409,0.05818 -0.156585,0.06951 0.225725,0.01362 0.346782,0.125252 0.745838,0.687764 0.262007,0.369327 0.496803,0.671503 0.521768,0.671503 0.02497,0 0.01431,-0.05052 -0.02368,-0.112275 z M 32.61645,44.223565 c -0.10076,-0.18827 -0.272139,-0.326482 -0.272139,-0.219472 0,0.06928 0.27319,0.394111 0.331453,0.394111 0.01878,0 -0.0079,-0.07859 -0.05931,-0.174639 z m -0.650576,-0.323559 c -0.027,-0.027 -0.431966,-0.07753 -0.899918,-0.112275 l -0.850822,-0.06318 1.986699,-2.793173 c 3.502488,-4.924277 4.486485,-6.270617 4.516712,-6.179936 0.01626,0.04877 -0.738103,1.824948 -1.676355,3.94706 -0.938253,2.122111 -1.666995,3.871652 -1.619427,3.88787 0.197233,0.06724 6.5285,-3.7602 6.491202,-3.924128 -0.01109,-0.04875 -0.427222,-1.006055 -0.924734,-2.12735 -0.497513,-1.121295 -0.889434,-2.053852 -0.870936,-2.07235 0.0185,-0.0185 0.60933,0.754369 1.312962,1.717481 0.703631,0.963112 1.301568,1.751113 1.328748,1.751113 0.02718,0 0.01054,-0.05052 -0.03698,-0.112276 -0.04752,-0.06175 -0.736091,-1.021706 -1.53016,-2.133233 -0.794068,-1.111527 -1.502228,-2.098507 -1.573688,-2.193288 -0.120862,-0.160305 -0.314641,0.08726 -2.777046,3.547904 -4.612949,6.482992 -4.815132,6.772765 -4.773515,6.841492 0.02243,0.03705 0.469545,0.06737 0.993575,0.06737 0.524031,0 0.93069,-0.02209 0.903687,-0.0491 z m 9.594969,-5.141254 c -0.132251,-0.255745 -0.414136,-0.456868 -0.414136,-0.295483 0,0.04257 0.06124,0.10089 0.136078,0.12961 0.07484,0.02872 0.177022,0.159908 0.227064,0.291528 0.05004,0.131621 0.113045,0.217251 0.140005,0.190289 0.02696,-0.02696 -0.01309,-0.169136 -0.08901,-0.315944 z"
     id="path3779"
     inkscape:connector-curvature="0" /><path
     style="fill:#c6621e;fill-opacity:1;stroke-width:0.08982036"
     d=""
     id="path3781"
     inkscape:connector-curvature="0" /><path
     style="fill:#c6621e;fill-opacity:1;stroke-width:0.08982036"
     d="m 31.184132,62.508474 c 0.05775,-0.0516 7.384782,-4.317892 9.154191,-5.330184 1.758898,-1.006279 2.282446,-1.28308 2.426847,-1.28308 0.08856,0 0.961497,1.742777 1.114683,2.225423 0.05942,0.18722 0.0523,0.189573 -0.190499,0.06293 -0.320584,-0.167214 -0.510023,-0.166537 -0.837859,0.003 -0.523789,0.270863 -0.610215,0.882912 -0.184751,1.308375 0.504854,0.504854 1.310447,0.235626 1.432898,-0.478873 0.05309,-0.309787 0.101689,-0.225429 0.92141,1.59941 l 0.865363,1.926446 h -7.369854 c -4.05342,0 -7.353013,-0.01505 -7.332429,-0.03344 z"
     id="path3783"
     inkscape:connector-curvature="0" /><path
     style="fill:#c6621e;fill-opacity:1;stroke-width:0.08982036"
     d="m 42.947336,59.611771 c -0.349005,-0.146746 -0.582431,-0.637464 -0.458404,-0.96368 0.210727,-0.554254 0.925504,-0.678611 1.36639,-0.237725 0.229188,0.229188 0.26039,0.313421 0.207945,0.561377 -0.125017,0.591071 -0.593429,0.859724 -1.115931,0.640028 z"
     id="path3785"
     inkscape:connector-curvature="0" /><path
     style="fill:#c6621e;fill-opacity:1;stroke-width:0.08982036"
     d=""
     id="path3787"
     inkscape:connector-curvature="0" /><path
     style="fill:#c6621e;fill-opacity:1;stroke-width:0.08982036"
     d=""
     id="path3789"
     inkscape:connector-curvature="0" /><path
     style="fill:#c6621e;fill-opacity:1;stroke-width:0.08982036"
     d=""
     id="path3791"
     inkscape:connector-curvature="0" /><rect
     style="fill:#c6621e;fill-opacity:1"
     id="rect3793"
     width="13.203593"
     height="15.179641"
     x="31.706587"
     y="32.694611" /><rect
     style="fill:#c6621e;fill-opacity:1"
     id="rect3795"
     width="0.26946107"
     height="1.1676646"
     x="38.712574"
     y="45.628742" /><rect
     style="fill:#c6621e;fill-opacity:1"
     id="rect3797"
     width="25.508982"
     height="22.005987"
     x="24.341318"
     y="39.610779" /><rect
     style="fill:#c6621e;fill-opacity:1"
     id="rect3799"
     width="13.832335"
     height="5.6586828"
     x="38.173653"
     y="57.215569" /><rect
     style="fill:#c6621e;fill-opacity:1"
     id="rect3801"
     width="20.389221"
     height="4.760479"
     x="22.904192"
     y="59.64072" /></svg>