<?xml version="1.0" encoding="UTF-8" standalone="no"?>
<svg
   xmlns:dc="http://purl.org/dc/elements/1.1/"
   xmlns:cc="http://creativecommons.org/ns#"
   xmlns:rdf="http://www.w3.org/1999/02/22-rdf-syntax-ns#"
   xmlns:svg="http://www.w3.org/2000/svg"
   xmlns="http://www.w3.org/2000/svg"
   xmlns:sodipodi="http://sodipodi.sourceforge.net/DTD/sodipodi-0.dtd"
   xmlns:inkscape="http://www.inkscape.org/namespaces/inkscape"
   height="1792"
   viewBox="0 0 1792 1792"
   width="1792"
   version="1.1"
   id="svg12"
   sodipodi:docname="cubenew.svg"
   inkscape:version="0.92.0 r15299">
  <metadata
     id="metadata18">
    <rdf:RDF>
      <cc:Work
         rdf:about="">
        <dc:format>image/svg+xml</dc:format>
        <dc:type
           rdf:resource="http://purl.org/dc/dcmitype/StillImage" />
        <dc:title></dc:title>
      </cc:Work>
    </rdf:RDF>
  </metadata>
  <defs
     id="defs16" />
  <sodipodi:namedview
     pagecolor="#ffffff"
     bordercolor="#666666"
     borderopacity="1"
     objecttolerance="10"
     gridtolerance="10"
     guidetolerance="10"
     inkscape:pageopacity="0"
     inkscape:pageshadow="2"
     inkscape:window-width="1920"
     inkscape:window-height="1018"
     id="namedview14"
     showgrid="false"
     inkscape:zoom="0.46595982"
     inkscape:cx="896"
     inkscape:cy="896"
     inkscape:window-x="-8"
     inkscape:window-y="-8"
     inkscape:window-maximized="1"
     inkscape:current-layer="svg12" />
  <path
     d="M896 1629l640-349v-636l-640 233v752zm-64-865l698-254-698-254-698 254zm832-252v768q0 35-18 65t-49 47l-704 384q-28 16-61 16t-61-16l-704-384q-31-17-49-47t-18-65v-768q0-40 23-73t61-47l704-256q22-8 44-8t44 8l704 256q38 14 61 47t23 73z"
     id="path10" />
  <path
     style="stroke-width:2.14610767;fill:#c87137"
     d="m 804.3612,1788.0546 c -5.9018,-1.5368 -15.07641,-4.7511 -20.38803,-7.1428 C 769.29629,1774.3032 65.231719,1389.9146 55.206899,1383.0372 40.879353,1373.208 22.863362,1352.0393 14.685454,1335.4248 -0.32318731,1304.9327 0.5044598,1332.2808 1.1419742,887.90531 L 1.7168862,487.16647 6.448717,474.77205 C 18.745013,442.5635 37.300828,418.94638 62.001093,404.06713 70.419235,398.9961 195.93249,352.38386 435.23066,265.4597 633.53102,193.42785 799.63976,133.45112 804.3612,132.17808 c 12.24584,-3.30185 43.15657,-2.8811 57.20744,0.77869 19.31858,5.03185 720.06626,260.44468 734.46436,267.70209 16.8303,8.48337 43.0641,34.71376 52.1766,52.16988 3.6971,7.08216 8.4933,19.15401 10.6583,26.82635 3.754,13.3034 3.9364,32.54356 3.9364,415.27186 0,319.71305 -0.5617,403.71025 -2.7622,413.06605 -5.2551,22.3425 -16.8165,42.442 -34.5341,60.0378 l -16.3564,16.244 -363.2935,198.0987 c -199.8114,108.9542 -368.81735,200.0441 -375.56881,202.4219 -15.61133,5.4983 -50.67337,7.2315 -65.92809,3.2592 z m 426.0024,-340.0562 305.8204,-166.8666 0.5435,-319.18626 c 0.299,-175.55244 0.299,-319.17244 0,-319.15557 -0.2989,0.0172 -144.4401,52.43783 -320.3136,116.49101 l -319.77007,116.4603 -0.54251,377.23392 -0.54252,377.234 14.49222,-7.6721 c 7.97073,-4.2196 152.11138,-82.762 320.31258,-174.5387 z m -48.8852,-810.01174 c 192.0698,-69.91646 348.5211,-127.78407 347.6695,-128.59471 -2.6556,-2.52784 -694.5592,-253.77029 -697.96036,-253.44176 -4.54307,0.43884 -693.91848,251.50682 -695.8611,253.43006 -1.14695,1.1355 687.9812,254.20805 695.8611,255.54514 0.59018,0.10023 158.22107,-57.02229 350.29086,-126.93873 z"
     id="path20"
     inkscape:connector-curvature="0" />
  <path
     style="fill:#c87137;stroke-width:2.14610767"
     d="m 796.84982,1784.5719 c -14.64935,-5.0452 -183.0249,-96.086 -593.3988,-320.8514 C 46.561802,1377.7909 53.320915,1381.8197 37.342915,1364.7106 17.625095,1343.597 7.6183663,1323.4778 4.8931056,1299.4683 3.6367271,1288.3996 2.8161102,1124.8279 2.8062276,883.49555 L 2.7899401,485.76476 10.337863,468.2237 C 19.672403,446.5306 36.164944,424.1964 51.27238,412.79018 66.274824,401.46324 128.79403,377.70984 460.98395,257.12534 743.2673,154.65686 802.5308,133.7028 815.29482,131.85002 c 24.90758,-3.61548 42.0773,0.13858 107.24167,23.44776 141.82371,50.73005 565.92501,205.51627 638.95421,233.20207 38.0732,14.43375 49.5292,21.21876 66.55,39.41539 13.4276,14.35515 21.8094,27.9854 27.7148,45.06855 l 4.9027,14.18268 V 896 1304.8335 l -4.9484,14.3201 c -2.7217,7.8761 -9.626,20.9137 -15.3431,28.9725 -22.1003,31.1527 -13.5052,25.8653 -261.9217,161.1268 -452.60052,246.4388 -504.192,273.9895 -518.92716,277.1154 -17.99376,3.8171 -48.94469,2.9299 -62.66802,-1.7964 z M 1217.875,1455.829 1537.257,1281.6892 V 962.22425 c 0,-175.70573 -0.6127,-319.46497 -1.3616,-319.46497 -0.7489,0 -145.1283,52.28827 -320.8431,116.19614 L 895.57078,875.15153 v 377.40867 c 0,207.5748 0.65748,377.4087 1.46107,377.4087 0.80359,0 145.18295,-78.363 320.84315,-174.1399 z M 886.4328,745.96475 c 180.6034,-64.99932 559.1158,-203.4425 623.4337,-228.02458 10.313,-3.94158 18.7633,-7.77524 18.7785,-8.51923 0.015,-0.74399 -10.8371,-5.42182 -24.1161,-10.39517 C 1423.4832,468.67208 897.99041,278.04425 857.48249,264.30313 l -26.28469,-8.9163 -20.92968,7.14931 c -36.81184,12.57447 -570.45837,206.82695 -658.9466,239.86293 -8.60511,3.21259 -14.88047,6.6063 -13.94524,7.54153 2.97964,2.97963 276.30892,104.28358 551.0951,204.25222 145.78838,53.03857 138.68545,50.50416 142.16262,50.72517 1.46611,0.0931 26.57557,-8.43577 55.7988,-18.95324 z"
     id="path84"
     inkscape:connector-curvature="0" />
  <path
     style="fill:#c87137;stroke-width:2.14610767"
     d="M 796.38128,1784.414 C 781.1022,1779.1561 644.98653,1705.5905 210.9624,1468.0163 161.97749,1441.2031 107.41269,1411.3843 89.707305,1401.7523 62.204638,1386.7904 54.984264,1381.7222 40.136383,1366.9567 17.231158,1344.1787 7.8916019,1326.0349 4.844085,1298.3952 3.4907151,1286.1207 2.9237718,1133.5774 3.2887192,879.90419 L 3.862994,480.72814 12.833792,462.48623 c 11.001553,-22.37142 25.837929,-40.92542 41.462735,-51.85231 8.417996,-5.88694 32.117175,-15.876 82.625153,-34.82598 C 233.08716,339.7278 571.07722,216.58996 748.5624,152.97266 l 60.09101,-21.53886 22.53413,-0.0158 c 20.65073,-0.0145 24.6866,0.70719 48.28743,8.63481 44.26268,14.86803 514.68183,185.89835 656.70903,238.75974 65.5962,24.41442 67.9376,25.6373 88.2831,46.10984 22.7517,22.89369 32.3146,41.68211 35.2071,69.17205 2.5654,24.38138 2.5799,776.23336 0.015,802.73836 -2.6932,27.8362 -12.0456,46.4476 -35.4113,70.4693 l -17.2724,17.7577 -226.4144,123.2209 c -463.66483,252.339 -505.85662,274.8559 -521.07326,278.086 -18.29065,3.8826 -48.93342,2.9349 -63.13656,-1.9527 z m 364.85602,-297.94 c 144.842,-78.9221 288.6999,-157.3196 319.6844,-174.2166 l 56.3353,-30.7218 V 961.91785 c 0,-254.75394 -0.5444,-319.43117 -2.6826,-318.69821 -1.4755,0.50575 -145.8549,52.92875 -320.8431,116.49552 L 895.57078,875.29111 V 1252.63 c 0,207.5364 0.52142,377.3389 1.1587,377.3389 0.63729,0 119.66582,-64.5727 264.50782,-143.4949 z M 894.74455,742.7828 C 1181.7335,639.52171 1523.2891,513.74957 1527.1676,509.90353 c 0.9428,-0.9349 -6.3003,-4.66265 -16.0958,-8.28389 -51.4212,-19.00951 -347.795,-127.01013 -458.8352,-167.20267 -176.46727,-63.8748 -216.39524,-77.95709 -221.03431,-77.95709 -5.21479,0 -294.7326,104.56292 -601.99798,217.41896 -84.39132,30.99624 -91.20958,33.65305 -91.20958,35.54096 0,2.55477 399.71552,150.48843 686.75449,254.16601 5.91886,2.13787 7.7455,1.59499 69.99533,-20.80301 z"
     id="path86"
     inkscape:connector-curvature="0" />
</svg>
