<?xml version="1.0" ?><svg enable-background="new 0 0 64 64" id="Слой_1" version="1.1" viewBox="0 0 64 64" xml:space="preserve" xmlns="http://www.w3.org/2000/svg" xmlns:xlink="http://www.w3.org/1999/xlink"><g id="row_2"><g id="_flower_x5F_pot"><path d="M42.2,23.1c0,2.9,1.8,11.3-10.2,11.3c-5.4,0-9.3-8.3-9.3-11.3s4.4-5.3,9.8-5.3S42.2,20.1,42.2,23.1z" fill="#33691E"/><g><path d="M51,38H13v-4c0-1.1,0.9-2,2-2h34c1.1,0,2,0.9,2,2V38z" fill="#FF7043"/><polygon fill="#FF5722" points="47,58 17,58 13,38 51,38    "/><path d="M50,61H14c-1.7,0-3-1.3-3-3v-1h42v1C53,59.7,51.7,61,50,61z" fill="#D84315"/></g><path d="M26.3,6.5c0,0,2.1-2.3,0.6-3.2c-0.8-0.4-1.4,0.2-1.8,1c0.1-0.6,0.1-1.3-0.6-1.5c-1.4-0.5-3.5,0.6-4.4,1.4    C19.6,4.7,20,5.4,20.5,6c-0.6-0.6-1.5-1.1-2.2,0.1c-0.8,1.4,0.5,1.8,1.1,1.8c-0.5,0-1.3,0.1-1.4,1.1c-0.2,1.4,4.4,0.7,4.4,0.7    c1.4-0.1,1.2-1,1.2-1s1.7,0.5,2.7-0.5C27.2,7.2,26.3,6.5,26.3,6.5z" fill="#E53935"/><path d="M47,19.5c0-3-2.8-1.9-2.8-1.9s2-1.2-0.3-3c-2.3-1.8-3.2-0.4-3.2-0.4s0.3-1.1-1.3-1.9    c-1.6-0.8-4-2.3-3.7-0.6c0,0,0.6,3.7,1.6,6.3s0.9,1.6,2,1.7c1.1,0.1,2.8,0.9,3.5,1.9c0.7,1,1.1-1.3,1.1-1.3S47,22.5,47,19.5z" fill="#B71C1C"/><path d="M39.6,12.8c0-1-0.4-1.9-0.9-2.6c-0.4-0.4-0.6-1-0.4-1.6c0.1-0.5,0.2-1,0.2-1.6c0-2.5-1.6-4.6-3.6-4.6    c-0.8,0-1.5,0.3-2.1,0.9c-0.5,0.4-1.1,0.6-1.7,0.4c-0.3-0.1-0.7-0.2-1.1-0.2c-1.5,0-2.7,1.2-3.2,2.8c-0.1,0-0.1,0-0.2,0    c-1.4,0-2.6,1.1-2.9,2.6c-0.1,0.5-0.4,0.8-0.8,1.1c-0.9,0.5-1.6,1.5-1.6,2.7c0,1.2,0.6,2.2,1.6,2.7c0.4,0.2,0.8,0.6,0.9,1.1    c0.5,1.5,1.9,2.5,3.6,2.5c0.5,0,1-0.1,1.4-0.3c0.8-0.3,1.8-0.1,2.2,0.8C31.6,21,33,22,34.6,22c2.3,0,4.2-2.2,4.2-4.9    c0-0.4,0-0.7-0.1-1c-0.1-0.4,0-0.9,0.3-1.2C39.4,14.3,39.6,13.5,39.6,12.8z" fill="#7CB342"/><path d="M58.3,23.1c-0.3-0.9-1.1-1.6-2-1.9c-0.7-0.2-1-0.2-1.7-1.2c-1.1-1.6-1.7-2.8-3.6-2.8c-0.8,0-1.5,0.2-2,0.7    c-0.5,0.3-1.1,0.3-1.5-0.1c-0.6-0.5-1.3-0.9-2.1-0.9c-1.7,0-5.7,3.1-4.9,5.8c0.5,1.7,0.9,6.3,0.9,8.4c0,1.9,1.4,3.5,3.2,3.8    c0.5,0.1,0.9,0.3,1.2,0.5c0.7,0.5,1.8,1.3,2.7,1.3c1.6,0,3-1,3.6-2.4c0.3-0.7,0.9-1.3,1.6-1.6c1.5-0.6,2.6-2.1,2.6-3.8    c0-0.7-0.2-1.3-0.5-1.8c0.3-0.2,0.6-0.4,0.8-0.6c0.3-0.4,0.8-0.6,1.3-0.6c0,0,0.1,0,0.1,0C58.5,25,58.7,24.1,58.3,23.1z" fill="#558B2F"/><path d="M44,23.3c-0.5-0.4-1.9-2.8-2.4-2.3c-0.9-1.3-3.1,2.7-4.9,3c-1.3,0.2-2.5,0.8-3,1.9    c-1.6,3.3,0.8,6.5,3.9,6.5c0.7,0,1.4-0.2,2-0.5c0.4-0.2,0.8-0.1,1,0.3c0.6,0.8,1.4,1.3,2.3,1.3c1.8,0,3.2-2,3.2-4.4    S45.9,25,44,23.3z" fill="#7CB342"/><path d="M16.9,25.6c0.6-0.6,1.8-0.1,2.6-0.6c0.8-0.4,0.3-1.7,1.2-2.9c0.7-1,0.4-2.4-0.5-3.2    c-0.7-0.6-2.2-0.8-2.7-0.9c-2.9-0.6-2.9-0.4-3.7,0.5c-0.7,0.8,0,1.8-0.6,3.3c-0.4,1.1-0.6,2.3,0.3,3.1    C14.6,25.8,15.6,27.1,16.9,25.6z" fill="#7CB342"/><path d="M15.6,24.1c-0.7-1.8-3-2.6-5.2-1.8c-0.6,0.2-1.2,0.7-1.6,1.2c-0.3,0.3-0.7,0.6-1.1,0.7    c-1,0.3-2.2,1.1-2.4,2.3c-0.2,1.2,0.4-0.1,2.3,0.1c2.4,0.2,10,1.5,11,1.2C20.8,26.9,16.4,26,15.6,24.1z" fill="#558B2F"/><path d="M25.5,17.8c-0.5-1.5-1.4-0.9-1.4-0.9s1-0.7-1-1.7c-1.9-1-2.1,0.5-2.1,0.5s-1.3-1.3-2.8,0.6    c-1.5,1.9,0.3,2.9,0.3,2.9s-0.8,1.5,0.2,2.9c1,1.4,2.9,0,2.9,0s1.9-0.3,3.1-1.1C25.7,20.1,26.1,19.3,25.5,17.8z" fill="#C62828"/><path d="M33.5,21.6c0,0,3.1-0.6,1.9-2.3c-1-1.4-1.8-0.6-2.1-0.3c0.3-0.4,1.2-1.8-0.1-2.6c-1.5-1-2.2,0.8-2.2,0.8    s-1.6-1.5-3,0c-1.5,1.5,0.5,2.6,0.5,2.6c-1,2.5,1.9,2.5,1.9,2.5c-0.6,1.5-0.2,2.5,1.1,2.9c1.3,0.3,1.1-1.5,1.1-1.5    c0.8,1.6,3,0.8,3.1-0.5C35.8,21.8,33.5,21.6,33.5,21.6z" fill="#D50000"/><path d="M21,26c0,0-0.6-3.3-1.2-4.4c-0.6-1-2.5-1.1-3.3-0.3s-2.8-0.2-2.8,1.8s1.5,3,2.5,3.4c0.9,0.3,1.9,0.6,1.8,1    s-1.6-0.3-2.1-0.4c-0.6-0.1,0,1-0.2,2.1c-0.2,1.2-1.1,2.5-0.8,3.7c0.3,1.2,4.4-0.6,4.4-0.6s1.5,1.6,3.4,1c2-0.6,2.6-3.7,1.6-5.4    c0,0,2.4-1.7,0.8-2.8c-1.6-1.1-2-0.1-2-0.1S20.9,23,21,26z" fill="#B71C1C"/><path d="M34.1,31.6c0,0,2.5-2.8-1.1-3.7c0,0,1.3-2.2-0.8-3.3c0,0-2-2.7-3.5-0.9c-0.5,0.7-0.8,1.3-0.9,1.9    c-0.1-0.5-0.4-1-0.8-0.9c-1.1,0.3-3.5,1.5-0.5,3.2c0,0-2.1-1.3-3-0.4c0,0-0.9-1.3-2.1,0.8c-1.3,2.1,1.9,2.1,1.9,2.1    s-1.9,0.6-1.6,2.2s3.9,0.8,3.9,0.8s-0.5,0.9,1.8,0.8c2.3,0,1.7-1.8,1.7-1.8s1.5,2.9,4,1.4S34.1,31.6,34.1,31.6z" fill="#D50000"/><path d="M26.9,23.4c0.3-0.2,1.5-3.1,0.3-3.8c-1.2-0.7-1.8,1.1-1.8,1.1c0-2.4-0.9-3.7-2.2-3    c-0.9,0.5-0.3,1.8,0.1,2.6c-0.6-0.8-1.7-2.1-2.7-1.1c-1.4,1.3,0.4,2.5,0.4,2.5s-1.5-0.2-1.2,1.4c0.3,1.6,2.9,1.5,2.9,1.5    c-0.3,1.3,1.5,1.2,3.3,0.2C27.8,24,26.9,23.4,26.9,23.4z" fill="#D50000"/></g></g></svg>