<?xml version="1.0" encoding="UTF-8" standalone="no"?>
<svg
   xmlns:dc="http://purl.org/dc/elements/1.1/"
   xmlns:cc="http://creativecommons.org/ns#"
   xmlns:rdf="http://www.w3.org/1999/02/22-rdf-syntax-ns#"
   xmlns:svg="http://www.w3.org/2000/svg"
   xmlns="http://www.w3.org/2000/svg"
   xmlns:sodipodi="http://sodipodi.sourceforge.net/DTD/sodipodi-0.dtd"
   xmlns:inkscape="http://www.inkscape.org/namespaces/inkscape"
   enable-background="new 0 0 64 64"
   id="Слой_1"
   version="1.1"
   viewBox="0 0 64 64"
   xml:space="preserve"
   sodipodi:docname="potnew.svg"
   inkscape:version="0.92.0 r15299"><metadata
     id="metadata129"><rdf:RDF><cc:Work
         rdf:about=""><dc:format>image/svg+xml</dc:format><dc:type
           rdf:resource="http://purl.org/dc/dcmitype/StillImage" /><dc:title></dc:title></cc:Work></rdf:RDF></metadata><defs
     id="defs127" /><sodipodi:namedview
     pagecolor="#ffffff"
     bordercolor="#666666"
     borderopacity="1"
     objecttolerance="10"
     gridtolerance="10"
     guidetolerance="10"
     inkscape:pageopacity="0"
     inkscape:pageshadow="2"
     inkscape:window-width="1920"
     inkscape:window-height="1018"
     id="namedview125"
     showgrid="false"
     inkscape:zoom="10.429825"
     inkscape:cx="52.378116"
     inkscape:cy="27.294387"
     inkscape:window-x="-8"
     inkscape:window-y="-8"
     inkscape:window-maximized="1"
     inkscape:current-layer="Слой_1" /><g
     id="row_2"><g
       id="_flower_x5F_pot"><path
         d="M42.2,23.1c0,2.9,1.8,11.3-10.2,11.3c-5.4,0-9.3-8.3-9.3-11.3s4.4-5.3,9.8-5.3S42.2,20.1,42.2,23.1z"
         fill="#33691E"
         id="path88" /><g
         id="g96"><path
           d="M51,38H13v-4c0-1.1,0.9-2,2-2h34c1.1,0,2,0.9,2,2V38z"
           fill="#FF7043"
           id="path90" /><polygon
           fill="#FF5722"
           points="47,58 17,58 13,38 51,38    "
           id="polygon92" /><path
           d="M50,61H14c-1.7,0-3-1.3-3-3v-1h42v1C53,59.7,51.7,61,50,61z"
           fill="#D84315"
           id="path94" /></g><path
         d="M26.3,6.5c0,0,2.1-2.3,0.6-3.2c-0.8-0.4-1.4,0.2-1.8,1c0.1-0.6,0.1-1.3-0.6-1.5c-1.4-0.5-3.5,0.6-4.4,1.4    C19.6,4.7,20,5.4,20.5,6c-0.6-0.6-1.5-1.1-2.2,0.1c-0.8,1.4,0.5,1.8,1.1,1.8c-0.5,0-1.3,0.1-1.4,1.1c-0.2,1.4,4.4,0.7,4.4,0.7    c1.4-0.1,1.2-1,1.2-1s1.7,0.5,2.7-0.5C27.2,7.2,26.3,6.5,26.3,6.5z"
         fill="#E53935"
         id="path98" /><path
         d="M47,19.5c0-3-2.8-1.9-2.8-1.9s2-1.2-0.3-3c-2.3-1.8-3.2-0.4-3.2-0.4s0.3-1.1-1.3-1.9    c-1.6-0.8-4-2.3-3.7-0.6c0,0,0.6,3.7,1.6,6.3s0.9,1.6,2,1.7c1.1,0.1,2.8,0.9,3.5,1.9c0.7,1,1.1-1.3,1.1-1.3S47,22.5,47,19.5z"
         fill="#B71C1C"
         id="path100" /><path
         d="M39.6,12.8c0-1-0.4-1.9-0.9-2.6c-0.4-0.4-0.6-1-0.4-1.6c0.1-0.5,0.2-1,0.2-1.6c0-2.5-1.6-4.6-3.6-4.6    c-0.8,0-1.5,0.3-2.1,0.9c-0.5,0.4-1.1,0.6-1.7,0.4c-0.3-0.1-0.7-0.2-1.1-0.2c-1.5,0-2.7,1.2-3.2,2.8c-0.1,0-0.1,0-0.2,0    c-1.4,0-2.6,1.1-2.9,2.6c-0.1,0.5-0.4,0.8-0.8,1.1c-0.9,0.5-1.6,1.5-1.6,2.7c0,1.2,0.6,2.2,1.6,2.7c0.4,0.2,0.8,0.6,0.9,1.1    c0.5,1.5,1.9,2.5,3.6,2.5c0.5,0,1-0.1,1.4-0.3c0.8-0.3,1.8-0.1,2.2,0.8C31.6,21,33,22,34.6,22c2.3,0,4.2-2.2,4.2-4.9    c0-0.4,0-0.7-0.1-1c-0.1-0.4,0-0.9,0.3-1.2C39.4,14.3,39.6,13.5,39.6,12.8z"
         fill="#7CB342"
         id="path102" /><path
         d="M58.3,23.1c-0.3-0.9-1.1-1.6-2-1.9c-0.7-0.2-1-0.2-1.7-1.2c-1.1-1.6-1.7-2.8-3.6-2.8c-0.8,0-1.5,0.2-2,0.7    c-0.5,0.3-1.1,0.3-1.5-0.1c-0.6-0.5-1.3-0.9-2.1-0.9c-1.7,0-5.7,3.1-4.9,5.8c0.5,1.7,0.9,6.3,0.9,8.4c0,1.9,1.4,3.5,3.2,3.8    c0.5,0.1,0.9,0.3,1.2,0.5c0.7,0.5,1.8,1.3,2.7,1.3c1.6,0,3-1,3.6-2.4c0.3-0.7,0.9-1.3,1.6-1.6c1.5-0.6,2.6-2.1,2.6-3.8    c0-0.7-0.2-1.3-0.5-1.8c0.3-0.2,0.6-0.4,0.8-0.6c0.3-0.4,0.8-0.6,1.3-0.6c0,0,0.1,0,0.1,0C58.5,25,58.7,24.1,58.3,23.1z"
         fill="#558B2F"
         id="path104" /><path
         d="M44,23.3c-0.5-0.4-1.9-2.8-2.4-2.3c-0.9-1.3-3.1,2.7-4.9,3c-1.3,0.2-2.5,0.8-3,1.9    c-1.6,3.3,0.8,6.5,3.9,6.5c0.7,0,1.4-0.2,2-0.5c0.4-0.2,0.8-0.1,1,0.3c0.6,0.8,1.4,1.3,2.3,1.3c1.8,0,3.2-2,3.2-4.4    S45.9,25,44,23.3z"
         fill="#7CB342"
         id="path106" /><path
         d="M16.9,25.6c0.6-0.6,1.8-0.1,2.6-0.6c0.8-0.4,0.3-1.7,1.2-2.9c0.7-1,0.4-2.4-0.5-3.2    c-0.7-0.6-2.2-0.8-2.7-0.9c-2.9-0.6-2.9-0.4-3.7,0.5c-0.7,0.8,0,1.8-0.6,3.3c-0.4,1.1-0.6,2.3,0.3,3.1    C14.6,25.8,15.6,27.1,16.9,25.6z"
         fill="#7CB342"
         id="path108" /><path
         d="M15.6,24.1c-0.7-1.8-3-2.6-5.2-1.8c-0.6,0.2-1.2,0.7-1.6,1.2c-0.3,0.3-0.7,0.6-1.1,0.7    c-1,0.3-2.2,1.1-2.4,2.3c-0.2,1.2,0.4-0.1,2.3,0.1c2.4,0.2,10,1.5,11,1.2C20.8,26.9,16.4,26,15.6,24.1z"
         fill="#558B2F"
         id="path110" /><path
         d="M25.5,17.8c-0.5-1.5-1.4-0.9-1.4-0.9s1-0.7-1-1.7c-1.9-1-2.1,0.5-2.1,0.5s-1.3-1.3-2.8,0.6    c-1.5,1.9,0.3,2.9,0.3,2.9s-0.8,1.5,0.2,2.9c1,1.4,2.9,0,2.9,0s1.9-0.3,3.1-1.1C25.7,20.1,26.1,19.3,25.5,17.8z"
         fill="#C62828"
         id="path112" /><path
         d="M33.5,21.6c0,0,3.1-0.6,1.9-2.3c-1-1.4-1.8-0.6-2.1-0.3c0.3-0.4,1.2-1.8-0.1-2.6c-1.5-1-2.2,0.8-2.2,0.8    s-1.6-1.5-3,0c-1.5,1.5,0.5,2.6,0.5,2.6c-1,2.5,1.9,2.5,1.9,2.5c-0.6,1.5-0.2,2.5,1.1,2.9c1.3,0.3,1.1-1.5,1.1-1.5    c0.8,1.6,3,0.8,3.1-0.5C35.8,21.8,33.5,21.6,33.5,21.6z"
         fill="#D50000"
         id="path114" /><path
         d="M21,26c0,0-0.6-3.3-1.2-4.4c-0.6-1-2.5-1.1-3.3-0.3s-2.8-0.2-2.8,1.8s1.5,3,2.5,3.4c0.9,0.3,1.9,0.6,1.8,1    s-1.6-0.3-2.1-0.4c-0.6-0.1,0,1-0.2,2.1c-0.2,1.2-1.1,2.5-0.8,3.7c0.3,1.2,4.4-0.6,4.4-0.6s1.5,1.6,3.4,1c2-0.6,2.6-3.7,1.6-5.4    c0,0,2.4-1.7,0.8-2.8c-1.6-1.1-2-0.1-2-0.1S20.9,23,21,26z"
         fill="#B71C1C"
         id="path116" /><path
         d="M34.1,31.6c0,0,2.5-2.8-1.1-3.7c0,0,1.3-2.2-0.8-3.3c0,0-2-2.7-3.5-0.9c-0.5,0.7-0.8,1.3-0.9,1.9    c-0.1-0.5-0.4-1-0.8-0.9c-1.1,0.3-3.5,1.5-0.5,3.2c0,0-2.1-1.3-3-0.4c0,0-0.9-1.3-2.1,0.8c-1.3,2.1,1.9,2.1,1.9,2.1    s-1.9,0.6-1.6,2.2s3.9,0.8,3.9,0.8s-0.5,0.9,1.8,0.8c2.3,0,1.7-1.8,1.7-1.8s1.5,2.9,4,1.4S34.1,31.6,34.1,31.6z"
         fill="#D50000"
         id="path118" /><path
         d="M26.9,23.4c0.3-0.2,1.5-3.1,0.3-3.8c-1.2-0.7-1.8,1.1-1.8,1.1c0-2.4-0.9-3.7-2.2-3    c-0.9,0.5-0.3,1.8,0.1,2.6c-0.6-0.8-1.7-2.1-2.7-1.1c-1.4,1.3,0.4,2.5,0.4,2.5s-1.5-0.2-1.2,1.4c0.3,1.6,2.9,1.5,2.9,1.5    c-0.3,1.3,1.5,1.2,3.3,0.2C27.8,24,26.9,23.4,26.9,23.4z"
         fill="#D50000"
         id="path120" /></g></g><path
     style="fill:#ff6600;fill-opacity:1;stroke-width:0.09587888"
     d="m 14.974652,47.658222 c -1.023639,-5.153834 -1.880378,-9.424539 -1.903866,-9.490456 -0.03407,-0.09562 3.787706,-0.119849 18.903633,-0.119849 10.420486,0 18.946344,0.03236 18.946353,0.07191 8e-6,0.03955 -0.84776,4.310955 -1.88393,9.49201 l -1.883944,9.420101 -15.158542,-0.0016 -15.158543,-0.0016 z"
     id="path131"
     inkscape:connector-curvature="0" /><path
     style="fill:#ff6600;fill-opacity:1;stroke-width:0.09587888"
     d="m 13.050703,35.770794 c 0.0019,-1.918315 0.02351,-2.227474 0.179667,-2.564761 0.206671,-0.446387 0.615258,-0.855646 0.998985,-1.000628 0.454325,-0.171656 0.516297,-0.132586 0.58261,0.367303 0.03424,0.258105 0.122238,0.519066 0.195555,0.579913 0.401128,0.332907 1.381318,0.211054 3.151388,-0.391765 l 1.131337,-0.385291 0.306846,0.233843 c 0.705754,0.537846 1.320126,0.762901 2.36708,0.867105 1.149026,0.114362 2.78048,0.13521 3.22775,0.04125 0.267115,-0.05612 0.309341,-0.03538 0.362959,0.178249 0.09058,0.360902 0.567977,0.516754 1.582893,0.516754 1.377616,0 2.018477,-0.384693 2.018477,-1.21164 v -0.367068 l 0.439457,0.502365 c 1.086913,1.242506 2.354609,1.435351 3.711861,0.564657 0.828557,-0.53153 1.284354,-1.117036 1.225057,-1.57368 -0.02464,-0.189709 1.005876,-0.145453 1.703234,0.07315 0.807758,0.253206 1.906228,0.253668 2.661184,0.0011 0.311403,-0.10417 0.775324,-0.190461 1.030935,-0.191758 0.43806,-0.0022 0.489745,0.02545 0.900056,0.481811 0.23942,0.266292 0.612748,0.573633 0.829617,0.68298 0.216871,0.109347 0.632862,0.424752 0.924429,0.700901 0.614791,0.582283 0.888487,0.738601 1.67636,0.957431 0.910348,0.252848 1.108044,0.341873 1.822434,0.820663 1.322756,0.886523 1.620829,1.002111 2.586729,1.0031 0.802436,8.24e-4 0.911625,-0.0236 1.558032,-0.348475 l 0.695122,-0.349357 v 0.99654 0.996539 h -18.93608 -18.93608 z"
     id="path133"
     inkscape:connector-curvature="0" /><path
     style="fill:#aa4400;fill-opacity:1;stroke-width:0.09587888"
     d="M 13.288294,60.874251 C 12.456277,60.671591 11.690591,60.043739 11.31937,59.25976 11.163077,58.929687 11.091347,58.563516 11.056689,57.918816 l -0.04768,-0.886879 h 20.973752 20.973752 l -0.04081,0.934819 c -0.0314,0.719359 -0.08936,1.028123 -0.251438,1.339638 -0.326908,0.628308 -0.748395,1.049336 -1.342585,1.341127 l -0.544746,0.26751 -18.600503,0.01464 c -10.230278,0.0081 -18.729941,-0.01689 -18.888141,-0.05542 z"
     id="path135"
     inkscape:connector-curvature="0" /><path
     style="fill:#d45500;fill-opacity:1;stroke-width:0.09587888"
     d="m 13.064867,35.722854 c 0.03342,-2.34859 0.06571,-2.530446 0.546595,-3.078327 0.197157,-0.224623 0.854204,-0.564118 0.998614,-0.515982 0.05993,0.01998 0.153827,0.247758 0.208651,0.506178 0.112912,0.532226 0.345814,0.711358 0.927952,0.713715 0.392351,0.0016 1.785689,-0.346044 2.848527,-0.710697 l 0.704725,-0.241787 0.306049,0.233434 c 0.914282,0.697357 1.962301,0.921588 4.338055,0.928155 1.52802,0.0042 1.548518,0.0071 1.649648,0.229026 0.146655,0.321873 0.747109,0.457395 1.789331,0.403848 1.271222,-0.06531 1.773236,-0.415927 1.773236,-1.238458 v -0.311538 l 0.479439,0.53792 c 0.979656,1.099149 2.073992,1.326988 3.337523,0.694869 0.761302,-0.380864 1.521457,-1.134979 1.570211,-1.557738 0.02579,-0.223595 0.07928,-0.264089 0.382151,-0.289303 0.19369,-0.01612 0.72563,0.05938 1.182086,0.167788 1.039278,0.246828 1.892293,0.248414 2.876175,0.0053 1.145997,-0.283116 1.211211,-0.270856 1.912489,0.359546 0.337309,0.303217 0.864753,0.734683 1.172098,0.958813 0.307347,0.224131 0.743733,0.557135 0.969748,0.74001 0.277837,0.224804 0.712604,0.426058 1.342304,0.621356 0.62553,0.194002 1.183242,0.451525 1.698399,0.784232 1.40473,0.907225 1.617983,0.98893 2.58873,0.991832 0.77754,0.0023 0.928002,-0.02825 1.520857,-0.309027 0.361871,-0.171384 0.674675,-0.311606 0.695122,-0.311606 0.02045,0 0.03718,0.431455 0.03718,0.958788 V 37.95199 H 31.976953 13.033148 Z"
     id="path137"
     inkscape:connector-curvature="0" /></svg>