<?xml version="1.0" ?><svg height="128" id="svg6449" version="1.1" viewBox="0 0 33.866666 33.866668" width="128" xmlns="http://www.w3.org/2000/svg" xmlns:cc="http://creativecommons.org/ns#" xmlns:dc="http://purl.org/dc/elements/1.1/" xmlns:inkscape="http://www.inkscape.org/namespaces/inkscape" xmlns:rdf="http://www.w3.org/1999/02/22-rdf-syntax-ns#" xmlns:sodipodi="http://sodipodi.sourceforge.net/DTD/sodipodi-0.dtd" xmlns:svg="http://www.w3.org/2000/svg"><defs id="defs6443"><clipPath clipPathUnits="userSpaceOnUse" id="clipPath5143"><ellipse cx="209.94763" cy="1573.1123" id="ellipse5145" rx="55.764446" ry="55.766594" style="display:inline;opacity:0.43500001;fill:#ffaaaa;fill-rule:evenodd;stroke:#333333;stroke-width:4.21448183;stroke-linecap:round;stroke-linejoin:round;stroke-miterlimit:4;stroke-dasharray:none;stroke-dashoffset:6.5999999;stroke-opacity:1"/></clipPath><clipPath clipPathUnits="userSpaceOnUse" id="clipPath11046"><ellipse cx="209.94763" cy="1380.6261" id="ellipse11048" rx="55.76445" ry="55.766594" style="display:inline;opacity:0.47600002;fill:#ffaaaa;fill-rule:evenodd;stroke:#333333;stroke-width:4.21448183;stroke-linecap:round;stroke-linejoin:round;stroke-miterlimit:4;stroke-dasharray:none;stroke-dashoffset:6.5999999;stroke-opacity:1"/></clipPath><clipPath clipPathUnits="userSpaceOnUse" id="clipPath8754"><ellipse cx="205.48343" cy="1298.3982" id="ellipse8756" rx="78.18396" ry="83.010139" style="display:inline;opacity:0.419;fill:#ffaaaa;fill-opacity:1;fill-rule:evenodd;stroke:#333333;stroke-width:4.21448183;stroke-linecap:round;stroke-linejoin:round;stroke-miterlimit:4;stroke-dasharray:none;stroke-dashoffset:6.5999999;stroke-opacity:1"/></clipPath><clipPath clipPathUnits="userSpaceOnUse" id="clipPath5060"><ellipse cx="68.499527" cy="1656.6876" id="ellipse5062" rx="71.409416" ry="71.223892" style="display:inline;opacity:0.45199998;fill:#ffe680;fill-rule:evenodd;stroke:#333333;stroke-width:4.21448183;stroke-linecap:round;stroke-linejoin:round;stroke-miterlimit:4;stroke-dasharray:none;stroke-dashoffset:6.5999999;stroke-opacity:1"/></clipPath><clipPath clipPathUnits="userSpaceOnUse" id="clipPath6174"><ellipse cx="128.2972" cy="1416.0679" id="ellipse6176" rx="55.76445" ry="55.766594" style="display:inline;opacity:0.572;fill:#ff9696;fill-opacity:1;fill-rule:evenodd;stroke:#333333;stroke-width:4.21448183;stroke-linecap:round;stroke-linejoin:round;stroke-miterlimit:4;stroke-dasharray:none;stroke-dashoffset:6.5999999;stroke-opacity:1"/></clipPath><clipPath clipPathUnits="userSpaceOnUse" id="clipPath5292"><ellipse cx="554.68481" cy="1234.8002" id="ellipse5294" rx="46.906162" ry="46.90797" style="display:inline;opacity:0.469;fill:#ffaaaa;fill-rule:evenodd;stroke:#333333;stroke-width:3.5625;stroke-linecap:round;stroke-linejoin:round;stroke-miterlimit:4;stroke-dasharray:none;stroke-dashoffset:6.5999999;stroke-opacity:1"/></clipPath><clipPath clipPathUnits="userSpaceOnUse" id="clipPath6537"><ellipse cx="2254.0229" cy="1364.222" id="ellipse6539" rx="114.45508" ry="114.4127" style="display:inline;fill:#d9ed88;fill-opacity:0.6;fill-rule:evenodd;stroke:#333333;stroke-width:9.00000095;stroke-linecap:round;stroke-linejoin:round;stroke-miterlimit:4;stroke-dasharray:none;stroke-dashoffset:6.5999999;stroke-opacity:1"/></clipPath></defs><g id="layer1" transform="translate(0,-263.13332)"><g id="g6223" transform="matrix(0.28222223,0,0,0.28222223,-18.8789,-133.34043)"><ellipse cx="126.89374" cy="1516.9135" id="ellipse6190" rx="53.059589" ry="7.7109265" style="opacity:0.694;fill:#808080;fill-rule:evenodd;stroke:none;stroke-width:0.47325075px;stroke-linecap:butt;stroke-linejoin:miter;stroke-opacity:1"/><ellipse cx="126.89374" cy="1462.9059" id="ellipse6145" rx="55.76445" ry="55.766594" style="display:inline;fill:#ff9696;fill-opacity:1;fill-rule:evenodd;stroke:#333333;stroke-width:4.21448183;stroke-linecap:round;stroke-linejoin:round;stroke-miterlimit:4;stroke-dasharray:none;stroke-dashoffset:6.5999999;stroke-opacity:1"/><g clip-path="url(#clipPath6174)" id="g6170" transform="translate(-1.4034572,45.29394)"><path d="m 143.32312,1440.6605 c 15.99409,-3.4979 21.06314,-5.8307 26.6661,-16.428 -5.7207,2.8441 -8.68465,4.2106 -16.89479,6.6211 7.71587,-5.0113 5.49129,-10.9546 9.54418,-21.2601 -8.32595,7.3673 -12.90802,6.3669 -15.68736,17.7133 0.90031,-5.1299 -2.74552,-9.4137 -2.56282,-17.8549 -7.13321,10.5981 -4.79255,20.8429 -1.06531,31.2086 z" id="path4881" style="fill:#abc837;fill-rule:evenodd;stroke:#333333;stroke-width:4.125;stroke-linecap:round;stroke-linejoin:round;stroke-miterlimit:4;stroke-dasharray:none;stroke-opacity:1"/><path d="m 113.27128,1441.6392 c -15.994092,-3.4979 -21.063141,-5.8307 -26.66611,-16.428 5.720708,2.8441 8.684652,4.2106 16.8948,6.621 -7.715876,-5.0112 -5.491291,-10.9546 -9.544183,-21.26 8.325953,7.3673 12.908023,6.3669 15.687353,17.7133 -0.9003,-5.1299 2.74553,-9.4137 2.56283,-17.8549 7.13321,10.5981 4.79255,20.8428 1.06531,31.2086 z" id="path4885" style="fill:#abc837;fill-rule:evenodd;stroke:#333333;stroke-width:4.125;stroke-linecap:round;stroke-linejoin:round;stroke-miterlimit:4;stroke-dasharray:none;stroke-opacity:1"/><path d="m 128.35692,1442.8829 c 14.24502,-14.9508 17.9998,-21.0965 17.17254,-37.1075 -4.10628,7.1788 -6.30023,10.7751 -13.23082,19.1567 4.80888,-11.0335 -1.16363,-16.3453 -3.40071,-30.9615 -3.97257,14.1588 -9.29654,16.1401 -5.10616,31.0824 -2.26025,-6.5122 -8.66141,-8.9451 -13.71363,-18.7734 -0.74289,17.0575 8.01882,27.2346 18.27878,36.6033 z" id="path4883" style="fill:#abc837;fill-rule:evenodd;stroke:#333333;stroke-width:4.125;stroke-linecap:round;stroke-linejoin:round;stroke-miterlimit:4;stroke-dasharray:none;stroke-opacity:1"/><path d="m 116.08142,1497.0024 c 6.11529,7.4358 15.28126,12.1722 25.60096,0 2.82088,-3.3273 30.79042,-41.7027 16.84273,-56.6856 -12.43548,-13.3585 -48.31321,-11.7523 -60.633846,1.6795 -13.87159,15.1226 15.807306,52.1086 18.190156,55.0061 z" id="path4786" style="fill:#ff5555;fill-rule:evenodd;stroke:#333333;stroke-width:4.125;stroke-linecap:round;stroke-linejoin:round;stroke-miterlimit:4;stroke-dasharray:none;stroke-opacity:1"/><path d="m 119.97184,1434.0028 c -8.43451,1.4707 -16.0477,3.811 -20.492969,8.5994 -13.351858,14.3825 15.039799,50.3129 17.333369,53.0685 3.96712,4.7663 9.26864,8.3572 15.34441,6.654 6.33491,-7.8079 1.53797,-60.9828 -12.18481,-68.3219 z" id="path5884" style="fill:#f34444;fill-opacity:1;fill-rule:evenodd;stroke:none;stroke-width:3.2999444;stroke-linecap:round;stroke-linejoin:round;stroke-miterlimit:4;stroke-dasharray:none;stroke-opacity:1"/><g id="g5798" style="fill:#a02c2c;fill-opacity:1" transform="translate(-0.25735194,2.8308713)"><circle cx="152.03972" cy="1457.1008" id="circle4897" r="2.1843197" style="fill:#a02c2c;fill-opacity:1;fill-rule:evenodd;stroke:none;stroke-width:3.56249976;stroke-linecap:butt;stroke-linejoin:miter;stroke-miterlimit:4;stroke-dasharray:none;stroke-opacity:1"/><circle cx="145.659" cy="1448.7051" id="circle4899" r="2.1843197" style="fill:#a02c2c;fill-opacity:1;fill-rule:evenodd;stroke:none;stroke-width:3.56249976;stroke-linecap:butt;stroke-linejoin:miter;stroke-miterlimit:4;stroke-dasharray:none;stroke-opacity:1"/><circle cx="155.9017" cy="1449.2089" id="circle4901" r="2.1843197" style="fill:#a02c2c;fill-opacity:1;fill-rule:evenodd;stroke:none;stroke-width:3.56249976;stroke-linecap:butt;stroke-linejoin:miter;stroke-miterlimit:4;stroke-dasharray:none;stroke-opacity:1"/><circle cx="139.27829" cy="1439.134" id="circle4903" r="2.1843197" style="fill:#a02c2c;fill-opacity:1;fill-rule:evenodd;stroke:none;stroke-width:3.56249976;stroke-linecap:butt;stroke-linejoin:miter;stroke-miterlimit:4;stroke-dasharray:none;stroke-opacity:1"/><circle cx="148.84933" cy="1440.4774" id="circle4905" r="2.1843197" style="fill:#a02c2c;fill-opacity:1;fill-rule:evenodd;stroke:none;stroke-width:3.56249976;stroke-linecap:butt;stroke-linejoin:miter;stroke-miterlimit:4;stroke-dasharray:none;stroke-opacity:1"/></g><g id="g6092"><circle cx="122.83147" cy="1493.433" id="path4887" r="2.1843197" style="fill:#a02c2c;fill-opacity:1;fill-rule:evenodd;stroke:none;stroke-width:3.56249976;stroke-linecap:butt;stroke-linejoin:miter;stroke-miterlimit:4;stroke-dasharray:none;stroke-opacity:1"/><circle cx="116.45077" cy="1484.8694" id="circle4889" r="2.1843197" style="fill:#a02c2c;fill-opacity:1;fill-rule:evenodd;stroke:none;stroke-width:3.56249976;stroke-linecap:butt;stroke-linejoin:miter;stroke-miterlimit:4;stroke-dasharray:none;stroke-opacity:1"/><circle cx="126.69348" cy="1485.541" id="circle4891" r="2.1843197" style="fill:#a02c2c;fill-opacity:1;fill-rule:evenodd;stroke:none;stroke-width:3.56249976;stroke-linecap:butt;stroke-linejoin:miter;stroke-miterlimit:4;stroke-dasharray:none;stroke-opacity:1"/><circle cx="110.07007" cy="1475.4662" id="circle4893" r="2.1843197" style="fill:#a02c2c;fill-opacity:1;fill-rule:evenodd;stroke:none;stroke-width:3.56249976;stroke-linecap:butt;stroke-linejoin:miter;stroke-miterlimit:4;stroke-dasharray:none;stroke-opacity:1"/><circle cx="119.64112" cy="1476.8096" id="circle4895" r="2.1843197" style="fill:#a02c2c;fill-opacity:1;fill-rule:evenodd;stroke:none;stroke-width:3.56249976;stroke-linecap:butt;stroke-linejoin:miter;stroke-miterlimit:4;stroke-dasharray:none;stroke-opacity:1"/></g><g id="g5899" style="fill:#a02c2c;fill-opacity:1" transform="matrix(-1,0,0,1,256.52445,2.8308713)"><circle cx="152.03972" cy="1457.1008" id="circle5889" r="2.1843197" style="fill:#a02c2c;fill-opacity:1;fill-rule:evenodd;stroke:none;stroke-width:3.56249976;stroke-linecap:butt;stroke-linejoin:miter;stroke-miterlimit:4;stroke-dasharray:none;stroke-opacity:1"/><circle cx="145.659" cy="1448.7051" id="circle5891" r="2.1843197" style="fill:#a02c2c;fill-opacity:1;fill-rule:evenodd;stroke:none;stroke-width:3.56249976;stroke-linecap:butt;stroke-linejoin:miter;stroke-miterlimit:4;stroke-dasharray:none;stroke-opacity:1"/><circle cx="155.9017" cy="1449.2089" id="circle5893" r="2.1843197" style="fill:#a02c2c;fill-opacity:1;fill-rule:evenodd;stroke:none;stroke-width:3.56249976;stroke-linecap:butt;stroke-linejoin:miter;stroke-miterlimit:4;stroke-dasharray:none;stroke-opacity:1"/><circle cx="139.27829" cy="1439.134" id="circle5895" r="2.1843197" style="fill:#a02c2c;fill-opacity:1;fill-rule:evenodd;stroke:none;stroke-width:3.56249976;stroke-linecap:butt;stroke-linejoin:miter;stroke-miterlimit:4;stroke-dasharray:none;stroke-opacity:1"/><circle cx="148.84933" cy="1440.4774" id="circle5897" r="2.1843197" style="fill:#a02c2c;fill-opacity:1;fill-rule:evenodd;stroke:none;stroke-width:3.56249976;stroke-linecap:butt;stroke-linejoin:miter;stroke-miterlimit:4;stroke-dasharray:none;stroke-opacity:1"/></g></g><path d="m 174.44952,1458.4062 c 1.65231,6.0465 0.68641,11.0479 -0.61012,16.0948" id="path6178" style="opacity:1;fill:none;fill-opacity:0;fill-rule:evenodd;stroke:#ffffff;stroke-width:2.80965424;stroke-linecap:round;stroke-linejoin:round;stroke-miterlimit:4;stroke-dasharray:none;stroke-dashoffset:0;stroke-opacity:1"/><ellipse cx="310.39355" cy="1428.7095" id="ellipse6180" rx="1.6825458" ry="1.6826104" style="fill:#ffffff;fill-opacity:1;fill-rule:evenodd;stroke:#ffffff;stroke-width:0.46827573px;stroke-linecap:butt;stroke-linejoin:miter;stroke-opacity:1" transform="rotate(5.4689904)"/><path d="m 80.882401,1443.4467 c 0.03706,0.023 3.197643,-11.8609 19.450019,-20.2782 7.24571,-3.7379 16.25639,-6.0739 26.24495,-5.8102 0.12325,0 0.24638,0.01 0.36939,0.011 10.20392,0.3289 19.27236,3.2296 26.47851,7.0984 7.38317,3.9594 12.45666,8.7569 15.5429,12.4751 3.09292,3.7262 4.1926,6.2834 3.88811,6.504 -0.39823,0.2885 -2.16586,-1.767 -5.61357,-4.845 -3.46496,-3.0934 -8.58802,-7.1296 -15.66481,-10.4795 -6.90524,-3.2647 -15.36887,-5.7277 -24.78162,-6.0229 -0.11343,0 -0.22697,-0.01 -0.3406,-0.01 -9.20428,-0.23 -17.49728,1.6828 -24.30735,4.8014 -7.218955,3.2897 -12.43413,7.8367 -15.776488,11.1732 -3.389622,3.3838 -5.057427,5.6538 -5.489441,5.3823 z" id="path6182" style="opacity:1;fill:#ffffff;fill-opacity:1;fill-rule:evenodd;stroke:none;stroke-width:9.46501446;stroke-linecap:round;stroke-linejoin:round;stroke-miterlimit:4;stroke-dasharray:none;stroke-dashoffset:0;stroke-opacity:1"/><path d="m 142.83521,1482.3133 c 6.20913,0.6269 12.10186,5.7315 13.61566,10.3557" id="path6186" style="opacity:1;fill:none;fill-opacity:1;fill-rule:evenodd;stroke:#ffffff;stroke-width:2.34375;stroke-linecap:round;stroke-linejoin:round;stroke-miterlimit:4;stroke-dasharray:none;stroke-dashoffset:0;stroke-opacity:1"/><ellipse cx="-949.47083" cy="1146.0287" id="ellipse6188" rx="1.5004438" ry="1.5005014" style="fill:#ffffff;fill-opacity:1;fill-rule:evenodd;stroke:none;stroke-width:0.47925526px;stroke-linecap:butt;stroke-linejoin:miter;stroke-opacity:1" transform="rotate(-45)"/></g></g></svg>